<svg width="29" height="55" viewBox="0 0 29 55" fill="none" xmlns="http://www.w3.org/2000/svg">
<path d="M6.03345 7.2591H0.846427C0.390662 7.2591 0 6.84821 0 6.34601V0.913095C0 0.410893 0.390662 0 0.846427 0H6.03345C6.51092 0 6.87988 0.410893 6.87988 0.913095V6.34601C6.87988 6.84821 6.51092 7.2591 6.03345 7.2591Z" fill="white"/>
<path d="M13.9981 7.2591H8.83276C8.35529 7.2591 7.98633 6.84821 7.98633 6.34601V0.913095C7.98633 0.410893 8.35529 0 8.83276 0H13.9981C14.4756 0 14.8662 0.410893 14.8662 0.913095V6.34601C14.8662 6.84821 14.4756 7.2591 13.9981 7.2591Z" fill="white"/>
<path opacity="0.7" d="M21.9856 7.2591H16.8203C16.3428 7.2591 15.9521 6.84821 15.9521 6.34601V0.913095C15.9521 0.410893 16.3428 0 16.8203 0H21.9856C22.4631 0 22.832 0.410893 22.832 0.913095V6.34601C22.832 6.84821 22.4631 7.2591 21.9856 7.2591Z" fill="white"/>
<path d="M6.03345 15.4082H0.846427C0.390662 15.4082 0 15.0201 0 14.5179V9.06215C0 8.58277 0.390662 8.17188 0.846427 8.17188H6.03345C6.51092 8.17188 6.87988 8.58277 6.87988 9.06215V14.5179C6.87988 15.0201 6.51092 15.4082 6.03345 15.4082Z" fill="white"/>
<path opacity="0.7" d="M13.9981 15.4082H8.83276C8.35529 15.4082 7.98633 15.0201 7.98633 14.5179V9.06215C7.98633 8.58277 8.35529 8.17188 8.83276 8.17188H13.9981C14.4756 8.17188 14.8662 8.58277 14.8662 9.06215V14.5179C14.8662 15.0201 14.4756 15.4082 13.9981 15.4082Z" fill="white"/>
<path opacity="0.4" d="M21.9856 15.4082H16.8203C16.3428 15.4082 15.9521 15.0201 15.9521 14.5179V9.06215C15.9521 8.58277 16.3428 8.17188 16.8203 8.17188H21.9856C22.4631 8.17188 22.832 8.58277 22.832 9.06215V14.5179C22.832 15.0201 22.4631 15.4082 21.9856 15.4082Z" fill="white"/>
<path opacity="0.7" d="M6.03345 23.58H0.846427C0.390662 23.58 0 23.1691 0 22.6669V17.234C0 16.7318 0.390662 16.3438 0.846427 16.3438H6.03345C6.51092 16.3438 6.87988 16.7318 6.87988 17.234V22.6669C6.87988 23.1691 6.51092 23.58 6.03345 23.58Z" fill="white"/>
<path opacity="0.4" d="M13.9981 23.58H8.83276C8.35529 23.58 7.98633 23.1691 7.98633 22.6669V17.234C7.98633 16.7318 8.35529 16.3438 8.83276 16.3438H13.9981C14.4756 16.3438 14.8662 16.7318 14.8662 17.234V22.6669C14.8662 23.1691 14.4756 23.58 13.9981 23.58Z" fill="white"/>
<path opacity="0.2" d="M21.9856 23.58H16.8203C16.3428 23.58 15.9521 23.1691 15.9521 22.6669V17.234C15.9521 16.7318 16.3428 16.3438 16.8203 16.3438H21.9856C22.4631 16.3438 22.832 16.7318 22.832 17.234V22.6669C22.832 23.1691 22.4631 23.58 21.9856 23.58Z" fill="white"/>
<path opacity="0.4" d="M6.03345 31.7285H0.846427C0.390662 31.7285 0 31.3404 0 30.8382V25.3825C0 24.9031 0.390662 24.4922 0.846427 24.4922H6.03345C6.51092 24.4922 6.87988 24.9031 6.87988 25.3825V30.8382C6.87988 31.3404 6.51092 31.7285 6.03345 31.7285Z" fill="white"/>
<path opacity="0.2" d="M13.9981 31.7285H8.83276C8.35529 31.7285 7.98633 31.3404 7.98633 30.8382V25.3825C7.98633 24.9031 8.35529 24.4922 8.83276 24.4922H13.9981C14.4756 24.4922 14.8662 24.9031 14.8662 25.3825V30.8382C14.8662 31.3404 14.4756 31.7285 13.9981 31.7285Z" fill="white"/>
<path opacity="0.1" d="M21.9856 31.7285H16.8203C16.3428 31.7285 15.9521 31.3404 15.9521 30.8382V25.3825C15.9521 24.9031 16.3428 24.4922 16.8203 24.4922H21.9856C22.4631 24.4922 22.832 24.9031 22.832 25.3825V30.8382C22.832 31.3404 22.4631 31.7285 21.9856 31.7285Z" fill="white"/>
<path d="M5.12193 54.7745L0 49.3873L5.12193 44L10.2439 49.3873L5.12193 54.7745Z" fill="#F6CAFF"/>
<path d="M23.1219 45.7745L18 40.3873L23.1219 35L28.2439 40.3873L23.1219 45.7745Z" fill="#F6CAFF"/>
</svg>
