<svg width="140" height="129" viewBox="0 0 140 129" fill="none" xmlns="http://www.w3.org/2000/svg">
<g filter="url(#filter0_d_2562_14373)">
<path d="M70.0005 10.0957C43.9544 10.0957 21.4516 21.5135 10.8466 38.0616C6.69149 44.5451 5.15527 51.8159 5.15527 59.4962C5.15527 67.9786 7.99922 75.96 13.0041 82.934C13.8062 84.0518 14.2341 85.3947 14.2336 86.7706L14.4893 110.86C14.4882 113.899 16.7112 115.808 19.3531 114.306L37.0124 103.701C38.6529 102.768 40.6134 102.581 42.3994 103.191C50.6537 106.007 59.8194 107.576 69.4725 107.576C97.0837 107.576 121.241 96.0655 130.936 77.8935C133.969 72.2072 135.638 65.9984 135.638 59.4962C135.638 32.2131 106.251 10.0957 70.0005 10.0957Z" fill="#B3E59F"/>
<path d="M74.4903 100.971C64.8375 100.971 51.0034 99.7481 42.7491 96.9314C40.963 96.322 39.0026 96.5085 37.3621 97.4411L22.4202 105.342C21.5515 105.802 20.5034 105.186 20.4825 104.203L20.044 83.5988C20.0446 82.223 19.6167 80.8801 18.8145 79.7623C13.8096 72.7886 8.85261 60.0527 8.85261 51.5706C8.85261 46.2179 9.98839 41.0654 12.0806 36.2383C7.15712 43.1695 4.3623 51.0859 4.3623 59.4946C4.3623 67.9771 7.20625 75.9585 12.2111 82.9324C13.0133 84.0503 13.4412 85.3931 13.4406 86.769L13.4322 111.915C13.4311 114.954 16.7106 116.862 19.3525 115.361L37.5401 105.02C39.1807 104.087 41.1411 103.9 42.9272 104.51C51.1814 107.326 60.3472 108.895 70.0003 108.895C99.1389 108.895 123.838 94.6035 132.41 74.8269C121.359 90.3842 99.5684 100.971 74.4903 100.971Z" fill="#95D6A4"/>
<path d="M84.4634 37.3008L75.4973 37.3042C75.3581 37.3042 72.3018 41.4073 72.3018 41.4583V73.0542C72.3018 75.3503 73.3707 76.4195 75.6666 76.4195C77.9625 76.4195 79.8238 75.3506 79.8238 73.0542V63.465C81.541 63.4563 83.3878 63.4486 84.4634 63.4486C91.7678 63.4486 97.7105 57.5835 97.7105 50.3747C97.7105 43.1659 91.768 37.3008 84.4634 37.3008ZM84.4634 55.1336C83.556 55.1336 82.1115 55.1392 80.6548 55.1458C80.2171 55.1479 79.8605 54.7947 79.8584 54.3571C79.8513 52.8327 79.8455 51.3108 79.8455 50.3747C79.8455 49.5683 79.842 48.0059 79.8381 46.4106C79.837 45.9721 80.192 45.616 80.6305 45.616H84.4634C87.1372 45.616 89.3961 47.7951 89.3961 50.3747C89.3961 52.9542 87.1372 55.1336 84.4634 55.1336Z" fill="#F5FCFF"/>
<path d="M79.631 73.5142C77.3351 73.5142 75.4737 71.6529 75.4737 69.3567V37.7608C75.4737 37.7099 75.4796 37.6605 75.4814 37.61C75.4846 37.5237 75.4859 37.4373 75.4944 37.3517C75.4957 37.3374 75.4978 37.3187 75.4996 37.3047C75.4172 37.3081 71.6377 37.5015 71.5117 41.4587V73.0546C71.5117 75.3508 73.3731 77.2121 75.6689 77.2121C77.8124 77.2121 79.5755 75.5896 79.8006 73.5058C79.744 73.5079 79.6883 73.5142 79.631 73.5142Z" fill="#E6F7FE"/>
<path d="M58.9889 76.6845C52.0847 76.6845 46.9961 71.5951 46.9961 64.6904C46.9961 60.8699 48.1873 57.4435 50.8931 55.1448C53.0775 53.289 55.9049 52.168 58.9889 52.168C65.8931 52.168 71.51 57.7856 71.51 64.6904C71.51 67.4728 70.5979 70.0462 69.0572 72.1271C66.774 75.2104 63.111 76.6845 58.9889 76.6845ZM58.9889 60.5326C56.6967 60.5326 54.8317 62.3977 54.8317 64.6901C54.8317 66.9825 56.6965 68.8476 58.9889 68.8476C61.2811 68.8476 63.1461 66.9825 63.1461 64.6901C63.1461 62.3977 61.2811 60.5326 58.9889 60.5326Z" fill="#F5FCFF"/>
<path d="M110.662 76.7119C106.072 76.6839 101.772 75.6826 98.2888 71.8381C96.747 70.1368 96.8762 67.5073 98.5775 65.9653C99.0027 65.5799 98.9578 65.2989 99.4676 65.1206C100.997 64.5863 102.765 64.9777 103.921 66.254C105.804 68.3314 108.706 68.94 110.663 68.9247C111.196 68.9205 111.672 68.8745 112.096 68.7955C115.099 68.2371 116.056 66.0274 116.114 65.2778C116.139 64.9542 116.355 61.6787 113.38 61.217C109.202 60.5685 104.103 59.438 100.585 55.4316C98.261 52.7855 97.1033 49.4891 97.9887 45.9782C98.5896 43.5959 99.951 41.5362 101.878 40.009C102.882 39.2134 104.039 38.5623 105.322 38.0853C111.726 35.7046 118.592 39.4604 119.354 39.8965C121.147 40.9226 121.886 43.0817 121.186 44.9557C121.107 45.1646 120.912 45.2587 120.798 45.4586C119.66 47.4465 117.304 48.1391 115.313 47.0096C114.236 46.4079 110.667 44.7872 108.317 45.661C107.508 45.9613 106.816 46.6055 106.439 47.1504C106.259 47.4106 106.13 47.698 106.05 48.0118C105.831 48.8816 106.039 49.8705 106.568 50.4724C108.1 52.2168 110.377 52.8557 114.043 53.4247C120.225 54.384 124.36 59.6379 123.876 65.9172C123.707 68.1072 122.91 70.3642 121.468 72.2813C119.318 75.1382 115.736 76.7119 110.662 76.7119Z" fill="#F5FCFF"/>
<path d="M106.314 47.3523C106.313 47.3531 106.314 47.3531 106.314 47.3539C106.676 46.711 107.314 46.216 108.22 45.8792C110.571 45.0057 114.162 46.5198 115.239 47.1215C117.23 48.2506 119.76 47.5578 120.897 45.5699C120.968 45.446 121.032 45.32 121.089 45.1922C121.144 45.0694 121.191 44.945 121.233 44.8198C121.235 44.8148 121.237 44.81 121.238 44.805C120.161 45.1621 118.944 45.0836 117.88 44.4801C116.803 43.8784 113.212 42.3641 110.861 43.2379C109.667 43.6819 107.305 44.5873 106.314 47.3523Z" fill="#E6F7FE"/>
<path d="M113.304 74.5985C108.713 74.5705 103.885 73.0408 100.402 69.1963C99.3603 68.0468 99.0843 66.4747 99.5373 65.0996C99.0021 65.2761 98.4937 65.5621 98.0491 65.9649C96.3478 67.5069 96.2187 70.1361 97.7604 71.8377C101.244 75.6822 106.071 77.2118 110.662 77.2398C115.829 77.2398 119.446 75.0588 121.581 72.1222C119.495 73.633 116.742 74.5985 113.304 74.5985Z" fill="#E6F7FE"/>
<path d="M112.769 61.6417C115.744 62.1034 115.611 64.9542 115.586 65.2778C115.526 66.0535 115.068 68.393 111.773 68.8478C118.517 70.1637 119.192 64.6338 118.955 62.6443C118.917 62.3221 118.386 59.462 115.41 59.0003C111.233 58.3519 106.481 57.3249 102.963 53.3185C100.639 50.6724 99.7507 46.849 100.631 43.3368C101.219 40.9881 102.317 39.6777 102.317 39.6777C102.189 39.7699 101.908 39.9857 101.889 40.0005C101.532 40.2831 98.9596 42.261 97.9892 45.9782C97.0745 49.4817 97.9973 53.3137 100.321 55.9598C103.84 59.966 108.591 60.9932 112.769 61.6417Z" fill="#E6F7FE"/>
<path d="M61.6302 74.5708C54.726 74.5708 49.1091 68.9531 49.1091 62.0484C49.1091 59.2681 50.0209 56.6975 51.5595 54.6172C48.4734 56.9001 46.4678 60.5645 46.4678 64.6897C46.4678 71.5948 52.0846 77.2121 58.9889 77.2121C63.1131 77.2121 66.7766 75.2068 69.0596 72.1207C66.9797 73.659 64.4097 74.5708 61.6302 74.5708Z" fill="#E6F7FE"/>
<path d="M36.0383 76.6839C25.036 76.6839 16.6133 68.2601 16.6133 57.2565C16.6133 51.8409 18.2533 46.9222 21.7671 43.3231C25.3926 39.6096 30.4511 37.3008 36.0383 37.3008C47.0406 37.3008 55.9917 46.2529 55.9917 57.2565C55.9917 63.4711 53.1364 69.0314 48.669 72.6942C45.2266 75.5164 40.8269 76.6839 36.0383 76.6839ZM36.0383 45.616C29.6206 45.616 24.3995 50.8377 24.3995 57.2565C24.3995 63.6752 29.6206 68.8969 36.0383 68.8969C42.4563 68.8969 47.6775 63.6752 47.6775 57.2565C47.6775 50.8377 42.4563 45.616 36.0383 45.616Z" fill="#F5FCFF"/>
<path d="M38.6816 74.5706C27.6793 74.5706 18.7283 65.6186 18.7283 54.6149C18.7283 49.7836 20.4547 45.3488 23.3216 41.8926C18.905 45.5559 16.0869 51.0829 16.0869 57.2563C16.0869 68.2599 25.0379 77.212 36.0402 77.212C42.212 77.212 47.7375 74.3945 51.4002 69.9786C47.9448 72.8448 43.5113 74.5706 38.6816 74.5706Z" fill="#E6F7FE"/>
<path d="M69.9993 96.51C72.9405 96.51 75.3248 94.1253 75.3248 91.1837C75.3248 88.2421 72.9405 85.8574 69.9993 85.8574C67.0581 85.8574 64.6738 88.2421 64.6738 91.1837C64.6738 94.1253 67.0581 96.51 69.9993 96.51Z" fill="#F5FCFF"/>
<path d="M51.3607 96.51C54.3019 96.51 56.6862 94.1253 56.6862 91.1837C56.6862 88.2421 54.3019 85.8574 51.3607 85.8574C48.4195 85.8574 46.0352 88.2421 46.0352 91.1837C46.0352 94.1253 48.4195 96.51 51.3607 96.51Z" fill="#F5FCFF"/>
<path d="M55.3227 92.547C52.3815 92.547 49.9972 90.1624 49.9972 87.2207C49.9972 86.8007 50.0508 86.3939 50.1427 86.002C47.7895 86.5535 46.0352 88.661 46.0352 91.1827C46.0352 94.1244 48.4195 96.509 51.3607 96.509C53.8818 96.509 55.9888 94.7549 56.5406 92.4014C56.1489 92.4934 55.7424 92.547 55.3227 92.547Z" fill="#E6F7FE"/>
<path d="M88.64 96.51C91.5811 96.51 93.9655 94.1253 93.9655 91.1837C93.9655 88.2421 91.5811 85.8574 88.64 85.8574C85.6988 85.8574 83.3145 88.2421 83.3145 91.1837C83.3145 94.1253 85.6988 96.51 88.64 96.51Z" fill="#F5FCFF"/>
<path d="M73.9614 92.547C71.0202 92.547 68.6359 90.1624 68.6359 87.2207C68.6359 86.8007 68.6895 86.3939 68.7814 86.002C66.4282 86.5535 64.6738 88.661 64.6738 91.1827C64.6738 94.1244 67.0582 96.509 69.9993 96.509C72.5205 96.509 74.6275 94.7549 75.1793 92.4014C74.7876 92.4934 74.3811 92.547 73.9614 92.547Z" fill="#E6F7FE"/>
<path d="M92.602 92.547C89.6608 92.547 87.2765 90.1624 87.2765 87.2207C87.2765 86.8007 87.3301 86.3939 87.422 86.002C85.0688 86.5535 83.3145 88.661 83.3145 91.1827C83.3145 94.1244 85.6988 96.509 88.64 96.509C91.1611 96.509 93.2681 94.7549 93.8199 92.4014C93.4282 92.4934 93.0217 92.547 92.602 92.547Z" fill="#E6F7FE"/>
<path d="M105.531 120.71C104.733 120.71 103.981 120.225 103.68 119.435C103.289 118.413 103.801 117.268 104.823 116.878C112.834 113.818 120.107 109.699 126.44 104.637C127.295 103.954 128.541 104.093 129.225 104.947C129.908 105.802 129.769 107.049 128.914 107.732C122.261 113.05 114.631 117.373 106.237 120.579C106.005 120.668 105.766 120.71 105.531 120.71Z" fill="#95D6A4"/>
<path d="M14.2502 13.3195C13.6472 13.3195 13.0518 13.0453 12.6627 12.5255C12.0072 11.6496 12.1857 10.4079 13.0616 9.75234C18.0559 6.0143 23.5995 2.79 29.5392 0.168979C30.5402 -0.272392 31.7096 0.1806 32.1515 1.18167C32.5931 2.18275 32.1398 3.35208 31.1388 3.79397C25.4733 6.29402 20.1901 9.36591 15.4356 12.9243C15.0796 13.1909 14.6633 13.3195 14.2502 13.3195Z" fill="#95D6A4"/>
<path d="M8.3089 30.3006C7.87439 30.3006 7.43725 30.1583 7.07169 29.8656C6.21773 29.1815 6.08012 27.9348 6.76397 27.0811C16.3621 15.0996 30.8859 6.36995 47.6598 2.50036C48.7251 2.25445 49.7895 2.91902 50.0354 3.98533C50.2814 5.05138 49.6165 6.11506 48.5505 6.36097C32.6416 10.0311 18.8997 18.2693 9.85647 29.5581C9.46502 30.0465 8.88973 30.3006 8.3089 30.3006Z" fill="#95D6A4"/>
<path d="M82.6352 117.844C81.6299 117.844 80.7691 117.083 80.6663 116.061C80.557 114.973 81.351 114.002 82.4395 113.892C101.922 111.937 119.396 103.24 130.38 90.0326C131.08 89.1916 132.329 89.0767 133.17 89.7764C134.011 90.4761 134.126 91.7249 133.426 92.5662C121.783 106.566 103.343 115.776 82.8349 117.835C82.768 117.841 82.7012 117.844 82.6352 117.844Z" fill="#95D6A4"/>
</g>
<defs>
<filter id="filter0_d_2562_14373" x="0.362305" y="0" width="139.276" height="128.711" filterUnits="userSpaceOnUse" color-interpolation-filters="sRGB">
<feFlood flood-opacity="0" result="BackgroundImageFix"/>
<feColorMatrix in="SourceAlpha" type="matrix" values="0 0 0 0 0 0 0 0 0 0 0 0 0 0 0 0 0 0 127 0" result="hardAlpha"/>
<feOffset dy="4"/>
<feGaussianBlur stdDeviation="2"/>
<feComposite in2="hardAlpha" operator="out"/>
<feColorMatrix type="matrix" values="0 0 0 0 0 0 0 0 0 0 0 0 0 0 0 0 0 0 0.25 0"/>
<feBlend mode="normal" in2="BackgroundImageFix" result="effect1_dropShadow_2562_14373"/>
<feBlend mode="normal" in="SourceGraphic" in2="effect1_dropShadow_2562_14373" result="shape"/>
</filter>
</defs>
</svg>
