<svg width="40" height="40" viewBox="0 0 40 40" fill="none" xmlns="http://www.w3.org/2000/svg">
<path d="M26.9647 32.4625H11.197C9.50636 32.4625 8.13086 31.087 8.13086 29.3962C8.13086 27.7056 9.50636 26.3301 11.197 26.3301H12.8125C13.3553 26.3301 13.7953 26.77 13.7953 27.3129C13.7953 27.8556 13.3553 28.2956 12.8125 28.2956H11.197C10.5902 28.2956 10.0964 28.7893 10.0964 29.3962C10.0964 30.0031 10.5901 30.4969 11.197 30.4969H26.9647C27.5075 30.4969 27.9475 30.9368 27.9475 31.4796C27.9475 32.0224 27.5075 32.4625 26.9647 32.4625Z" fill="url(#paint0_linear_1256_17735)"/>
<path d="M8.96414 13.2776C8.4214 13.2776 7.98136 12.8376 7.98136 12.2948V8.96414C7.98136 7.31075 6.63624 5.96562 4.98284 5.96562C4.43997 5.96562 4 5.52558 4 4.98278C4 4.44003 4.43997 4 4.98278 4C7.72003 4 9.94692 6.22689 9.94692 8.96414V12.2948C9.94692 12.8376 9.50695 13.2776 8.96414 13.2776Z" fill="url(#paint1_linear_1256_17735)"/>
<path d="M15.1155 36.0005C17.0044 36.0005 18.5357 34.4692 18.5357 32.5803C18.5357 30.6914 17.0044 29.1602 15.1155 29.1602C13.2266 29.1602 11.6953 30.6914 11.6953 32.5803C11.6953 34.4692 13.2266 36.0005 15.1155 36.0005Z" fill="url(#paint2_linear_1256_17735)"/>
<path d="M15.1152 35.3924C16.6684 35.3924 17.9276 34.1333 17.9276 32.58C17.9276 31.0267 16.6684 29.7676 15.1152 29.7676C13.5619 29.7676 12.3027 31.0267 12.3027 32.58C12.3027 34.1333 13.5619 35.3924 15.1152 35.3924Z" fill="url(#paint3_linear_1256_17735)"/>
<path d="M13.7227 33.9714L15.6999 35.9487C17.1195 35.7037 18.2389 34.5843 18.4838 33.1648L16.5065 31.1875L13.7227 33.9714Z" fill="url(#paint4_linear_1256_17735)"/>
<path d="M15.115 34.5483C16.2022 34.5483 17.0835 33.667 17.0835 32.5798C17.0835 31.4927 16.2022 30.6113 15.115 30.6113C14.0278 30.6113 13.1465 31.4927 13.1465 32.5798C13.1465 33.667 14.0278 34.5483 15.115 34.5483Z" fill="url(#paint5_linear_1256_17735)"/>
<path d="M17.0831 32.5801C17.0831 33.0839 16.8911 33.5878 16.5065 33.9724C15.7379 34.741 14.4917 34.741 13.7231 33.9724C13.3385 33.5878 13.1465 33.0839 13.1465 32.5801H17.0831Z" fill="url(#paint6_linear_1256_17735)"/>
<path d="M26.7053 36.0005C28.5942 36.0005 30.1255 34.4692 30.1255 32.5803C30.1255 30.6914 28.5942 29.1602 26.7053 29.1602C24.8164 29.1602 23.2852 30.6914 23.2852 32.5803C23.2852 34.4692 24.8164 36.0005 26.7053 36.0005Z" fill="url(#paint7_linear_1256_17735)"/>
<path d="M26.705 35.3924C28.2583 35.3924 29.5174 34.1333 29.5174 32.58C29.5174 31.0267 28.2583 29.7676 26.705 29.7676C25.1517 29.7676 23.8926 31.0267 23.8926 32.58C23.8926 34.1333 25.1517 35.3924 26.705 35.3924Z" fill="url(#paint8_linear_1256_17735)"/>
<path d="M25.3125 33.9714L27.2898 35.9487C28.7093 35.7037 29.8287 34.5843 30.0737 33.1648L28.0964 31.1875L25.3125 33.9714Z" fill="url(#paint9_linear_1256_17735)"/>
<path d="M26.7048 34.5483C27.792 34.5483 28.6733 33.667 28.6733 32.5798C28.6733 31.4927 27.792 30.6113 26.7048 30.6113C25.6177 30.6113 24.7363 31.4927 24.7363 32.5798C24.7363 33.667 25.6177 34.5483 26.7048 34.5483Z" fill="url(#paint10_linear_1256_17735)"/>
<path d="M28.6736 32.5801C28.6736 33.0839 28.481 33.5878 28.097 33.9724C27.3283 34.741 26.0816 34.741 25.313 33.9724C24.9283 33.5878 24.7363 33.0839 24.7363 32.5801H28.6736Z" fill="url(#paint11_linear_1256_17735)"/>
<path d="M29.037 28.8443H13.079C11.9607 28.8443 10.9756 28.1087 10.658 27.0364L6.69922 13.6699H35.4168L31.458 27.0364C31.1404 28.1087 30.1553 28.8443 29.037 28.8443Z" fill="url(#paint12_linear_1256_17735)"/>
<path d="M28.1999 27.0764C28.8446 27.0764 29.4201 26.6212 29.5487 25.9648L31.2894 17.0803C31.4356 16.3345 30.9495 15.6116 30.2038 15.4654C29.4582 15.3191 28.7351 15.8054 28.5889 16.5511L26.8482 25.4356C26.7021 26.1814 27.1882 26.9043 27.9339 27.0505C28.0232 27.068 28.1122 27.0764 28.1999 27.0764Z" fill="url(#paint13_linear_1256_17735)"/>
<path d="M13.9143 27.0764C14.002 27.0764 14.091 27.0679 14.1803 27.0504C14.926 26.9042 15.4121 26.1814 15.266 25.4356L13.5253 16.5511C13.3791 15.8054 12.6562 15.3193 11.9104 15.4654C11.1647 15.6115 10.6786 16.3344 10.8248 17.0802L12.5655 25.9647C12.6941 26.6211 13.2697 27.0764 13.9143 27.0764Z" fill="url(#paint14_linear_1256_17735)"/>
<path d="M23.1995 27.0759C23.9226 27.0759 24.5289 26.5117 24.5718 25.7806L25.0939 16.8961C25.1384 16.1376 24.5597 15.4865 23.801 15.4419C23.0433 15.3973 22.3914 15.9761 22.3468 16.7347L21.8247 25.6192C21.7801 26.3778 22.3589 27.0289 23.1175 27.0735C23.145 27.0751 23.1724 27.0759 23.1995 27.0759Z" fill="url(#paint15_linear_1256_17735)"/>
<path d="M18.9144 27.076C18.9416 27.076 18.9688 27.0752 18.9963 27.0735C19.7549 27.029 20.3337 26.3779 20.2892 25.6193L19.7671 16.7348C19.7225 15.9762 19.0719 15.3968 18.3128 15.4419C17.5543 15.4865 16.9754 16.1376 17.02 16.8962L17.542 25.7807C17.5851 26.5118 18.1914 27.076 18.9144 27.076Z" fill="url(#paint16_linear_1256_17735)"/>
<path d="M8.94727 21.2578L10.659 27.0371C10.9765 28.1094 11.9616 28.8451 13.08 28.8451H29.0381C30.1564 28.8451 31.1415 28.1095 31.4591 27.0371L33.1708 21.2578H8.94727Z" fill="url(#paint17_linear_1256_17735)"/>
<path d="M35.4175 13.67L31.4588 27.0368C31.1412 28.1084 30.156 28.8444 29.0372 28.8444H21.6929L6.77633 13.9279L6.77552 13.9286L6.69922 13.6699H35.4175V13.67Z" fill="url(#paint18_linear_1256_17735)"/>
<path d="M34.4273 14.2211H7.68964C6.82119 14.2211 6.11719 13.5171 6.11719 12.6486C6.11719 11.7802 6.82119 11.0762 7.68964 11.0762H34.4273C35.2957 11.0762 35.9997 11.7802 35.9997 12.6486C35.9997 13.517 35.2957 14.2211 34.4273 14.2211Z" fill="url(#paint19_linear_1256_17735)"/>
<defs>
<linearGradient id="paint0_linear_1256_17735" x1="18.0392" y1="29.6632" x2="18.0392" y2="33.8788" gradientUnits="userSpaceOnUse">
<stop stop-color="#5A5A5A"/>
<stop offset="1" stop-color="#444444"/>
</linearGradient>
<linearGradient id="paint1_linear_1256_17735" x1="4.97889" y1="5.8213" x2="7.31401" y2="8.15642" gradientUnits="userSpaceOnUse">
<stop stop-color="#5A5A5A"/>
<stop offset="1" stop-color="#444444"/>
</linearGradient>
<linearGradient id="paint2_linear_1256_17735" x1="13.6609" y1="31.1258" x2="16.531" y2="33.9959" gradientUnits="userSpaceOnUse">
<stop stop-color="#5A5A5A"/>
<stop offset="1" stop-color="#444444"/>
</linearGradient>
<linearGradient id="paint3_linear_1256_17735" x1="16.3112" y1="33.7761" x2="13.9512" y2="31.416" gradientUnits="userSpaceOnUse">
<stop stop-color="#5A5A5A"/>
<stop offset="1" stop-color="#444444"/>
</linearGradient>
<linearGradient id="paint4_linear_1256_17735" x1="18.7116" y1="36.1765" x2="14.4863" y2="31.9512" gradientUnits="userSpaceOnUse">
<stop stop-color="#433F43" stop-opacity="0"/>
<stop offset="1" stop-color="#1A1A1A"/>
</linearGradient>
<linearGradient id="paint5_linear_1256_17735" x1="14.3877" y1="31.8526" x2="16.1666" y2="33.6315" gradientUnits="userSpaceOnUse">
<stop stop-color="#EAF6FF"/>
<stop offset="1" stop-color="#B3DAFE"/>
</linearGradient>
<linearGradient id="paint6_linear_1256_17735" x1="15.1148" y1="32.9467" x2="15.1148" y2="34.3912" gradientUnits="userSpaceOnUse">
<stop stop-color="#D8ECFE" stop-opacity="0"/>
<stop offset="1" stop-color="#678D98"/>
</linearGradient>
<linearGradient id="paint7_linear_1256_17735" x1="25.2508" y1="31.1258" x2="28.1209" y2="33.9959" gradientUnits="userSpaceOnUse">
<stop stop-color="#5A5A5A"/>
<stop offset="1" stop-color="#444444"/>
</linearGradient>
<linearGradient id="paint8_linear_1256_17735" x1="27.9011" y1="33.7761" x2="25.541" y2="31.416" gradientUnits="userSpaceOnUse">
<stop stop-color="#5A5A5A"/>
<stop offset="1" stop-color="#444444"/>
</linearGradient>
<linearGradient id="paint9_linear_1256_17735" x1="30.3015" y1="36.1765" x2="26.0762" y2="31.9512" gradientUnits="userSpaceOnUse">
<stop stop-color="#433F43" stop-opacity="0"/>
<stop offset="1" stop-color="#1A1A1A"/>
</linearGradient>
<linearGradient id="paint10_linear_1256_17735" x1="25.9776" y1="31.8526" x2="27.7565" y2="33.6315" gradientUnits="userSpaceOnUse">
<stop stop-color="#EAF6FF"/>
<stop offset="1" stop-color="#B3DAFE"/>
</linearGradient>
<linearGradient id="paint11_linear_1256_17735" x1="26.705" y1="32.9467" x2="26.705" y2="34.3912" gradientUnits="userSpaceOnUse">
<stop stop-color="#D8ECFE" stop-opacity="0"/>
<stop offset="1" stop-color="#678D98"/>
</linearGradient>
<linearGradient id="paint12_linear_1256_17735" x1="20.804" y1="12.7254" x2="26.5023" y2="33.9132" gradientUnits="userSpaceOnUse">
<stop stop-color="#8AC9FE"/>
<stop offset="1" stop-color="#814AA0"/>
</linearGradient>
<linearGradient id="paint13_linear_1256_17735" x1="31.3153" y1="21.2579" x2="26.8222" y2="21.2579" gradientUnits="userSpaceOnUse">
<stop stop-color="#8AC9FE"/>
<stop offset="1" stop-color="#814AA0"/>
</linearGradient>
<linearGradient id="paint14_linear_1256_17735" x1="15.292" y1="21.2579" x2="10.7989" y2="21.2579" gradientUnits="userSpaceOnUse">
<stop stop-color="#8AC9FE"/>
<stop offset="1" stop-color="#814AA0"/>
</linearGradient>
<linearGradient id="paint15_linear_1256_17735" x1="25.0963" y1="21.2576" x2="21.8223" y2="21.2576" gradientUnits="userSpaceOnUse">
<stop stop-color="#8AC9FE"/>
<stop offset="1" stop-color="#814AA0"/>
</linearGradient>
<linearGradient id="paint16_linear_1256_17735" x1="20.2916" y1="21.2578" x2="17.0177" y2="21.2578" gradientUnits="userSpaceOnUse">
<stop stop-color="#8AC9FE"/>
<stop offset="1" stop-color="#814AA0"/>
</linearGradient>
<linearGradient id="paint17_linear_1256_17735" x1="21.059" y1="24.7894" x2="21.059" y2="28.2204" gradientUnits="userSpaceOnUse">
<stop stop-color="#5B3374" stop-opacity="0"/>
<stop offset="1" stop-color="#5B3374"/>
</linearGradient>
<linearGradient id="paint18_linear_1256_17735" x1="21.0584" y1="21.5455" x2="21.0584" y2="11.651" gradientUnits="userSpaceOnUse">
<stop stop-color="#5B3374" stop-opacity="0"/>
<stop offset="1" stop-color="#5B3374"/>
</linearGradient>
<linearGradient id="paint19_linear_1256_17735" x1="21.0585" y1="11.3513" x2="21.0585" y2="14.6929" gradientUnits="userSpaceOnUse">
<stop stop-color="#8AC9FE"/>
<stop offset="1" stop-color="#814AA0"/>
</linearGradient>
</defs>
</svg>
