<svg width="21" height="21" viewBox="0 0 21 21" fill="none" xmlns="http://www.w3.org/2000/svg">
<path fill-rule="evenodd" clip-rule="evenodd" d="M14.4341 19.2292C14.7349 19.2292 14.9788 18.9854 14.9788 18.6846C14.9788 18.3837 14.7349 18.1399 14.4341 18.1399C14.1333 18.1399 13.8894 18.3837 13.8894 18.6846C13.8894 18.9854 14.1333 19.2292 14.4341 19.2292ZM14.4341 20.8633C15.6373 20.8633 16.6128 19.8878 16.6128 18.6846C16.6128 17.4813 15.6373 16.5059 14.4341 16.5059C13.2308 16.5059 12.2554 17.4813 12.2554 18.6846C12.2554 19.8878 13.2308 20.8633 14.4341 20.8633Z" fill="white"/>
<path fill-rule="evenodd" clip-rule="evenodd" d="M7.89795 19.2292C8.19877 19.2292 8.44262 18.9854 8.44262 18.6846C8.44262 18.3837 8.19877 18.1399 7.89795 18.1399C7.59712 18.1399 7.35327 18.3837 7.35327 18.6846C7.35327 18.9854 7.59712 19.2292 7.89795 19.2292ZM7.89795 20.8633C9.10119 20.8633 10.0767 19.8878 10.0767 18.6846C10.0767 17.4813 9.10119 16.5059 7.89795 16.5059C6.6947 16.5059 5.71924 17.4813 5.71924 18.6846C5.71924 19.8878 6.6947 20.8633 7.89795 20.8633Z" fill="white"/>
<path fill-rule="evenodd" clip-rule="evenodd" d="M0.137305 0.801402C0.3876 0.425961 0.894858 0.32451 1.2703 0.574805L2.54268 1.42305C2.94906 1.69396 3.23594 2.1105 3.34417 2.58675L5.58579 12.4499C5.7267 13.0699 6.27786 13.5098 6.91366 13.5098H15.4183C16.0541 13.5098 16.6053 13.0699 16.7462 12.4499L18.4792 4.82446C18.6729 3.97237 18.0252 3.16097 17.1514 3.16097H8.7149C8.26369 3.16097 7.89789 2.79518 7.89789 2.34396C7.89789 1.89273 8.26369 1.52694 8.7149 1.52694H17.1514C19.0738 1.52694 20.4987 3.31195 20.0726 5.18657L18.3396 12.812C18.0295 14.176 16.817 15.1439 15.4183 15.1439H6.91366C5.51493 15.1439 4.30237 14.176 3.99239 12.812L1.75077 2.94887C1.73531 2.88085 1.69432 2.82135 1.63627 2.78264L0.363907 1.9344C-0.0115389 1.68411 -0.112991 1.17685 0.137305 0.801402Z" fill="white"/>
</svg>
