<svg width="26" height="26" viewBox="0 0 26 26" fill="none" xmlns="http://www.w3.org/2000/svg">
<path fill-rule="evenodd" clip-rule="evenodd" d="M13 0.1875C5.92875 0.1875 0.1875 5.92875 0.1875 13C0.1875 20.0713 5.92875 25.8125 13 25.8125C20.0713 25.8125 25.8125 20.0713 25.8125 13C25.8125 5.92875 20.0713 0.1875 13 0.1875ZM23.9262 12.5025C23.6662 6.69688 18.87 2.0625 13 2.0625C6.96312 2.0625 2.0625 6.96312 2.0625 13C2.0625 13.6075 2.11187 14.2031 2.2075 14.7838L5.65999 12.8112C5.90811 12.6694 6.2075 12.6481 6.47313 12.7544L12.3431 15.1025L18.7406 10.9631C18.99 10.8012 19.3012 10.7681 19.5794 10.8725L23.9262 12.5025ZM11.75 5.8125C10.1975 5.8125 8.9375 7.0725 8.9375 8.625C8.9375 10.1775 10.1975 11.4375 11.75 11.4375C13.3025 11.4375 14.5625 10.1775 14.5625 8.625C14.5625 7.0725 13.3025 5.8125 11.75 5.8125Z" fill="white"/>
</svg>
