<svg width="30" height="32" viewBox="0 0 30 32" fill="none" xmlns="http://www.w3.org/2000/svg">
<path d="M26.1477 15.3101C26.1477 21.6777 21.0793 26.8392 14.8243 26.8392C12.1554 26.8413 9.5746 25.8847 7.55179 24.1437C5.55877 22.442 4.20485 20.1121 3.71309 17.538C3.56997 16.8047 3.49747 16.0594 3.49658 15.3123C3.49658 8.94477 8.56505 3.7832 14.82 3.7832C17.0418 3.78363 19.2129 4.44703 21.0554 5.68848C21.9869 6.31545 22.8207 7.07636 23.5301 7.94667C25.2257 10.0247 26.1491 12.6259 26.1434 15.308L26.1477 15.3101Z" fill="#F93052"/>
<path d="M25.548 11.6175L11.1999 26.234C9.86273 25.7735 8.62486 25.0638 7.55176 24.1425C7.59722 24.0841 7.64486 24.0321 7.69682 23.978L23.1361 8.2573C23.2555 8.13675 23.3893 8.03131 23.5344 7.94336C24.4231 9.03569 25.1054 10.2807 25.548 11.6175Z" fill="#F15A24"/>
<path d="M21.062 5.68486C21.023 5.73033 20.9862 5.77363 20.9429 5.81693L5.5015 21.5355C5.4582 21.5788 5.41706 21.6177 5.37159 21.6567C4.55827 20.4055 3.99507 19.0085 3.71313 17.543L17.0111 3.99609C18.4602 4.28437 19.8373 4.85847 21.062 5.68486Z" fill="#F15A24"/>
<path d="M29.6617 14.5996C28.6073 21.9349 22.4022 27.562 14.9088 27.562C7.41543 27.562 1.21461 21.9328 0.158051 14.5996C0.0529798 15.3347 0.000163558 16.0763 0 16.8188C0 25.2042 6.67497 32.0004 14.9131 32.0004C23.1513 32.0004 29.8263 25.2042 29.8263 16.8188C29.8239 16.0761 29.7689 15.3345 29.6617 14.5996Z" fill="#ED1C24"/>
<path d="M14.9131 4.67226C20.6051 4.67226 25.2363 9.38782 25.2363 15.1838C25.2363 20.9797 20.6051 25.6953 14.9131 25.6953C9.22111 25.6953 4.58782 20.9775 4.58782 15.1816C4.58782 9.38566 9.21894 4.67226 14.9131 4.67226ZM14.9131 0C6.67713 0 0 6.79838 0 15.1816C0 23.5648 6.67713 30.3632 14.9131 30.3632C23.1491 30.3632 29.8263 23.5648 29.8263 15.1816C29.8263 6.79838 23.147 0 14.9131 0Z" fill="#F7931E"/>
<path d="M14.9108 28.8789C9.11269 28.8789 3.99976 24 0.999756 20.5C2.98298 26.5103 8.33771 30.3657 14.9109 30.3657C21.3434 30.3657 26.8189 26.2195 28.9147 20.4062C25.9999 24 20.5011 28.8789 14.9108 28.8789Z" fill="#F15A24"/>
<path d="M20.5183 13.3284L11.9576 22.0451C11.7775 22.2289 11.5626 22.3749 11.3254 22.4746C11.0882 22.5743 10.8335 22.6257 10.5762 22.6257C10.3189 22.6257 10.0642 22.5743 9.82704 22.4746C9.58985 22.3749 9.37494 22.2289 9.19491 22.0451C8.82881 21.6681 8.62402 21.1632 8.62402 20.6377C8.62402 20.1122 8.82881 19.6074 9.19491 19.2304L17.7535 10.5181C17.9335 10.3343 18.1484 10.1883 18.3856 10.0886C18.6228 9.98886 18.8775 9.9375 19.1348 9.9375C19.3921 9.9375 19.6468 9.98886 19.884 10.0886C20.1212 10.1883 20.3361 10.3343 20.5162 10.5181C20.8818 10.8954 21.0862 11.4001 21.0862 11.9254C21.0862 12.4508 20.8818 12.9555 20.5162 13.3327L20.5183 13.3284Z" fill="#C1272D"/>
<path d="M12.2891 10.002L20.8499 18.7186C20.8955 18.765 20.9382 18.8141 20.9776 18.8659C21.2826 19.2497 21.4374 19.7315 21.4131 20.2212C21.3888 20.7109 21.1871 21.175 20.8455 21.5268C20.5063 21.873 20.0492 22.079 19.5651 22.1039C19.081 22.1288 18.6052 21.9707 18.2323 21.661C18.182 21.6207 18.1342 21.5773 18.0894 21.5311L9.52646 12.8123C9.16035 12.4353 8.95557 11.9305 8.95557 11.405C8.95557 10.8795 9.16035 10.3747 9.52646 9.99767C9.70664 9.81411 9.92159 9.6683 10.1588 9.56877C10.3959 9.46923 10.6506 9.41797 10.9078 9.41797C11.165 9.41797 11.4196 9.46923 11.6568 9.56877C11.894 9.6683 12.1089 9.81411 12.2891 9.99767V10.002Z" fill="#C1272D"/>
<path d="M20.5183 12.7741L11.9576 21.4821C11.7775 21.666 11.5626 21.812 11.3254 21.9117C11.0882 22.0114 10.8335 22.0628 10.5762 22.0628C10.3189 22.0628 10.0642 22.0114 9.82704 21.9117C9.58985 21.812 9.37494 21.666 9.19491 21.4821C8.82881 21.1051 8.62402 20.6003 8.62402 20.0748C8.62402 19.5493 8.82881 19.0445 9.19491 18.6675L17.7535 9.95953C17.9335 9.77571 18.1484 9.62966 18.3856 9.52996C18.6228 9.43026 18.8775 9.37891 19.1348 9.37891C19.3921 9.37891 19.6468 9.43026 19.884 9.52996C20.1212 9.62966 20.3361 9.77571 20.5162 9.95953C20.8818 10.3368 21.0862 10.8415 21.0862 11.3668C21.0862 11.8922 20.8818 12.3969 20.5162 12.7741H20.5183Z" fill="white"/>
<path d="M11.7369 10.002L20.2976 18.7186C20.3433 18.765 20.3859 18.8141 20.4254 18.8659C20.7304 19.2497 20.8852 19.7315 20.8609 20.2212C20.8366 20.7109 20.6348 21.175 20.2933 21.5268C19.954 21.873 19.497 22.079 19.0129 22.1039C18.5287 22.1288 18.053 21.9707 17.68 21.661C17.6297 21.6207 17.582 21.5773 17.5371 21.5311L8.97421 12.8123C8.60811 12.4353 8.40332 11.9305 8.40332 11.405C8.40332 10.8795 8.60811 10.3747 8.97421 9.99767C9.15439 9.81411 9.36935 9.6683 9.60652 9.56877C9.84369 9.46923 10.0983 9.41797 10.3555 9.41797C10.6127 9.41797 10.8674 9.46923 11.1046 9.56877C11.3417 9.6683 11.5567 9.81411 11.7369 9.99767V10.002Z" fill="white"/>
<path d="M12.787 20.6394L11.9578 21.4838C11.7778 21.6676 11.5629 21.8136 11.3257 21.9133C11.0885 22.013 10.8338 22.0644 10.5765 22.0644C10.3192 22.0644 10.0645 22.013 9.82729 21.9133C9.59009 21.8136 9.37519 21.6676 9.19516 21.4838C8.82905 21.1068 8.62427 20.602 8.62427 20.0765C8.62427 19.551 8.82905 19.0461 9.19516 18.6692L10.0244 17.8248C10.2044 17.6409 10.4193 17.4949 10.6565 17.3952C10.8937 17.2955 11.1484 17.2441 11.4057 17.2441C11.663 17.2441 11.9177 17.2955 12.1549 17.3952C12.3921 17.4949 12.607 17.6409 12.787 17.8248C13.1526 18.202 13.3571 18.7067 13.3571 19.2321C13.3571 19.7574 13.1526 20.2621 12.787 20.6394Z" fill="white"/>
<path d="M20.4233 18.8646C20.7283 19.2485 20.8831 19.7303 20.8588 20.2199C20.8345 20.7096 20.6328 21.1737 20.2913 21.5255C19.952 21.8718 19.4949 22.0778 19.0108 22.1027C18.5267 22.1275 18.0509 21.9694 17.678 21.6597C17.373 21.2759 17.2182 20.7941 17.2425 20.3044C17.2668 19.8147 17.4685 19.3506 17.8101 18.9988C18.1496 18.653 18.6066 18.4473 19.0905 18.4225C19.5745 18.3976 20.0502 18.5554 20.4233 18.8646Z" fill="white"/>
<g style="mix-blend-mode:soft-light">
<path d="M18.6609 12.7387C19.2516 12.7387 19.7304 12.2599 19.7304 11.6692C19.7304 11.0785 19.2516 10.5996 18.6609 10.5996C18.0702 10.5996 17.5913 11.0785 17.5913 11.6692C17.5913 12.2599 18.0702 12.7387 18.6609 12.7387Z" fill="white"/>
</g>
<g style="mix-blend-mode:soft-light">
<path d="M17.4117 13.6321C17.7071 13.6321 17.9465 13.3926 17.9465 13.0973C17.9465 12.8019 17.7071 12.5625 17.4117 12.5625C17.1164 12.5625 16.877 12.8019 16.877 13.0973C16.877 13.3926 17.1164 13.6321 17.4117 13.6321Z" fill="white"/>
</g>
</svg>
