<svg width="32" height="32" viewBox="0 0 32 32" fill="none" xmlns="http://www.w3.org/2000/svg">
<g clip-path="url(#clip0_916_23187)">
<path d="M26.8091 27.8903C20.98 33.3702 11.1325 33.3696 5.30448 27.8902C6.21945 23.0036 11.2613 18.6262 16.0568 18.606C20.8526 18.6263 25.8937 23.0035 26.8091 27.8903ZM4.19934e-06 15.9739C-0.00294917 20.0512 1.55201 23.9755 4.34681 26.9441C5.46747 22.8371 9.07499 19.2564 13.0749 17.9523C6.36085 14.7697 8.54236 4.90045 16.0567 4.79723C23.5702 4.8981 25.7526 14.7713 19.0388 17.9523C23.0385 19.2563 26.6462 22.8372 27.7668 26.9441C30.5616 23.9755 32.1166 20.0512 32.1136 15.9739C31.2354 -5.32168 0.881293 -5.32759 4.19934e-06 15.9739ZM21.9347 11.7017C21.9161 10.1596 21.287 8.68771 20.1853 7.60855C19.0835 6.52938 17.599 5.93088 16.0568 5.94414C15.2931 5.93213 14.5347 6.07219 13.8256 6.35614C13.1166 6.64009 12.4711 7.06227 11.9268 7.59809C11.3825 8.13391 10.9502 8.77267 10.6551 9.47717C10.3601 10.1817 10.2081 10.9378 10.2081 11.7016C10.2081 12.4654 10.3601 13.2216 10.6551 13.9261C10.9502 14.6306 11.3825 15.2693 11.9268 15.8052C12.4711 16.341 13.1166 16.7632 13.8256 17.0471C14.5347 17.3311 15.2931 17.4711 16.0568 17.4591C17.5993 17.4734 19.0844 16.8752 20.1863 15.7958C21.2883 14.7165 21.9171 13.2441 21.9347 11.7017Z" fill="url(#paint0_linear_916_23187)"/>
</g>
<defs>
<linearGradient id="paint0_linear_916_23187" x1="4.19934e-06" y1="16" x2="32.1136" y2="16" gradientUnits="userSpaceOnUse">
<stop stop-color="#00C0FF"/>
<stop offset="1" stop-color="#5558FF"/>
</linearGradient>
<clipPath id="clip0_916_23187">
<rect width="32" height="32" fill="white"/>
</clipPath>
</defs>
</svg>
