<svg width="24" height="24" viewBox="0 0 24 24" fill="none" xmlns="http://www.w3.org/2000/svg">
<path d="M11.229 12.6541C13.9778 12.6541 16.2143 10.4176 16.2143 7.66884C16.2143 4.92009 13.9778 2.68359 11.229 2.68359C8.47952 2.68359 6.24377 4.92009 6.24377 7.66884C6.24377 10.4176 8.47952 12.6541 11.229 12.6541ZM11.229 4.18359C13.1513 4.18359 14.7143 5.74659 14.7143 7.66884C14.7143 9.59109 13.1513 11.1541 11.229 11.1541C9.30677 11.1541 7.74377 9.59109 7.74377 7.66884C7.74377 5.74659 9.30677 4.18359 11.229 4.18359Z" fill="white"/>
<path d="M2.68275 21.2911C2.7495 21.3091 2.81625 21.3181 2.88225 21.3181C3.2115 21.3181 3.51375 21.0991 3.60525 20.7668C4.10325 18.9541 5.24025 17.3731 6.804 16.3163C9.435 14.5471 13.0343 14.5501 15.645 16.3156C15.9885 16.5466 16.4543 16.4573 16.6868 16.1138C16.9185 15.7703 16.8285 15.3046 16.485 15.0721C14.9295 14.0206 13.1123 13.4648 11.229 13.4648C9.3495 13.4648 7.52925 14.0206 5.96475 15.0721C4.10325 16.3306 2.751 18.2116 2.15775 20.3693C2.04825 20.7683 2.283 21.1808 2.68275 21.2911Z" fill="white"/>
<path d="M21.6488 16.9524C21.3555 16.6591 20.8815 16.6591 20.5883 16.9524L19.5758 17.9649L18.5633 16.9524C18.27 16.6591 17.796 16.6591 17.5028 16.9524C17.2095 17.2456 17.2095 17.7196 17.5028 18.0129L18.5153 19.0254L17.5028 20.0379C17.2095 20.3311 17.2095 20.8051 17.5028 21.0984C17.649 21.2446 17.841 21.3181 18.033 21.3181C18.225 21.3181 18.417 21.2446 18.5633 21.0984L19.5758 20.0859L20.5883 21.0984C20.7345 21.2446 20.9265 21.3181 21.1185 21.3181C21.3105 21.3181 21.5025 21.2446 21.6488 21.0984C21.942 20.8051 21.942 20.3311 21.6488 20.0379L20.6363 19.0254L21.6488 18.0129C21.942 17.7196 21.942 17.2449 21.6488 16.9524Z" fill="white"/>
</svg>
