<svg width="18" height="19" viewBox="0 0 18 19" fill="none" xmlns="http://www.w3.org/2000/svg">
<path d="M0.442905 8.43226L7.93028 0.944858C8.52082 0.354318 9.47858 0.354318 10.0691 0.944858C10.6597 1.5354 10.6597 2.49316 10.0691 3.0837L3.65186 9.50093L10.0691 15.9181C10.6597 16.5087 10.6597 17.4664 10.0691 18.057C9.47858 18.6475 8.52082 18.6475 7.93028 18.057L0.442905 10.5696C-0.147635 9.98053 -0.147635 9.0228 0.442905 8.43226ZM9.44561 7.97886L15.3899 1.71377C15.9872 1.08503 16.9547 1.08503 17.552 1.71377C18.1493 2.34252 18.1493 3.36248 17.552 3.99199L12.6883 9.11797L17.552 14.244C18.1493 14.8727 18.1493 15.8934 17.552 16.5222C16.9547 17.1509 15.9872 17.1509 15.3899 16.5222L9.44561 10.2571C8.84831 9.62834 8.84831 8.60837 9.44561 7.97886Z" fill="url(#paint0_linear_892_22793)"/>
<defs>
<linearGradient id="paint0_linear_892_22793" x1="9" y1="18.4999" x2="9" y2="0.501953" gradientUnits="userSpaceOnUse">
<stop stop-color="#A4A4A4"/>
<stop offset="1" stop-color="#5E5E5E"/>
</linearGradient>
</defs>
</svg>
