<svg width="39" height="40" viewBox="0 0 39 40" fill="none" xmlns="http://www.w3.org/2000/svg">
<path d="M35.5976 24.4322C35.4603 24.9456 35.5899 25.6774 35.7146 26.386C35.906 27.4687 36.1042 28.5872 35.5589 29.5308C35.005 30.4879 33.8788 30.8939 32.885 31.2535C32.217 31.4942 31.5258 31.7437 31.1613 32.1081C30.7978 32.4716 30.5484 33.1628 30.3067 33.8318C29.949 34.8256 29.5421 35.9518 28.585 36.5058C27.8677 36.9215 27.0489 36.9061 26.2214 36.791C25.9613 36.7543 25.7003 36.7088 25.4412 36.6624C24.7326 36.5368 24.0008 36.4072 23.4875 36.5445C23.0099 36.6721 22.4598 37.1371 21.9272 37.5866C21.1113 38.2759 20.1871 39.058 19.0551 39.058C17.923 39.058 16.9988 38.2759 16.1829 37.5866C15.6503 37.1371 15.1002 36.6721 14.6226 36.5445C14.1093 36.4072 13.3775 36.5368 12.6689 36.6624C11.5871 36.8538 10.4677 37.052 9.52511 36.5058C8.56806 35.9519 8.16107 34.8257 7.80241 33.8318C7.5617 33.1628 7.31229 32.4716 6.9488 32.1081C6.58434 31.7437 5.89314 31.4942 5.22513 31.2526C4.23134 30.8939 3.10511 30.4879 2.55118 29.5308C2.00595 28.5873 2.20413 27.4688 2.39554 26.386C2.52024 25.6774 2.64978 24.9456 2.51251 24.4322C2.3849 23.9547 1.91991 23.4037 1.47038 22.871C0.781111 22.0551 0 21.1309 0 19.9988C0 18.8667 0.781111 17.9416 1.47038 17.1256C1.91991 16.5929 2.3849 16.0428 2.51251 15.5643C2.64978 15.052 2.52024 14.3192 2.39554 13.6106C2.20413 12.5288 2.00595 11.4093 2.55118 10.4667C3.10511 9.50964 4.23134 9.10265 5.22513 8.74399C5.89314 8.50231 6.58434 8.2529 6.9488 7.88941C7.31229 7.52496 7.5617 6.83375 7.80338 6.16575C8.16107 5.17099 8.56806 4.04476 9.52511 3.49073C10.4677 2.9455 11.5871 3.14368 12.6689 3.33509C13.3775 3.45979 14.1093 3.58933 14.6226 3.45303C15.1002 3.32542 15.6503 2.85946 16.1829 2.40993C16.9988 1.72056 17.923 0.939453 19.0551 0.939453C20.1871 0.939453 21.1113 1.72056 21.9272 2.40984C22.4598 2.85936 23.0099 3.32532 23.4875 3.45293C24.0008 3.5902 24.7326 3.4597 25.4412 3.33499C25.7119 3.28665 25.9845 3.23832 26.2571 3.20158C27.0721 3.09138 27.8783 3.08171 28.585 3.49063C29.5421 4.04456 29.949 5.17176 30.3067 6.16565C30.5484 6.83365 30.7978 7.52486 31.1623 7.88931C31.5258 8.2528 32.217 8.50222 32.885 8.7439C33.8788 9.10255 35.005 9.50954 35.5589 10.4666C36.1042 11.4091 35.906 12.5286 35.7146 13.6105C35.5899 14.3191 35.4603 15.0519 35.5976 15.5642C35.7252 16.0427 36.1902 16.5928 36.6397 17.1255C37.329 17.9414 38.1101 18.8665 38.1101 19.9987C38.1101 21.1307 37.329 22.0549 36.6397 22.8709C36.1902 23.4037 35.7252 23.9547 35.5976 24.4322Z" fill="#FFE0A9"/>
<path d="M35.5977 24.4323C35.4604 24.9457 35.5899 25.6775 35.7146 26.3861C35.9061 27.4688 36.1042 28.5873 35.559 29.5309C35.0051 30.488 33.8788 30.894 32.885 31.2536C32.217 31.4943 31.5258 31.7437 31.1614 32.1082C30.7979 32.4717 30.5485 33.1629 30.3068 33.8319C29.9491 34.8256 29.5421 35.9519 28.5851 36.5059C27.8678 36.9216 27.0489 36.9061 26.2214 36.7911C26.9755 36.1724 27.338 35.1641 27.6638 34.2631C27.9122 33.5729 28.1703 32.8594 28.5454 32.4834C28.9215 32.1073 29.6349 31.8502 30.3252 31.6008C31.3509 31.2305 32.5138 30.8109 33.0861 29.823C33.6488 28.8495 33.4448 27.6933 33.2466 26.5756C33.1171 25.8448 32.9837 25.0888 33.1248 24.5591C33.2572 24.066 33.7367 23.4976 34.2008 22.9475C34.9132 22.1055 35.7195 21.1504 35.7195 19.9815C35.7195 18.8128 34.9132 17.8576 34.2008 17.0155C33.7367 16.4655 33.2572 15.898 33.1248 15.404C32.9837 14.8742 33.1171 14.1183 33.2466 13.3874C33.4448 12.2699 33.6488 11.1137 33.0861 10.1411C32.5138 9.15212 31.3509 8.73257 30.3252 8.36231C29.6349 8.1129 28.9215 7.85575 28.5464 7.47969C28.1703 7.10364 27.9122 6.3902 27.6638 5.69996C27.3438 4.81348 26.9871 3.82355 26.2572 3.20185C27.0722 3.09165 27.8784 3.08198 28.5851 3.4909C29.5421 4.04483 29.9491 5.17203 30.3068 6.16592C30.5485 6.83392 30.7979 7.52513 31.1623 7.88958C31.5258 8.25307 32.217 8.50249 32.885 8.74417C33.8788 9.10282 35.0051 9.50981 35.559 10.4669C36.1042 11.4094 35.9061 12.5289 35.7146 13.6107C35.5899 14.3193 35.4604 15.0521 35.5977 15.5645C35.7253 16.043 36.1903 16.5931 36.6398 17.1257C37.3291 17.9417 38.1102 18.8668 38.1102 19.9989C38.1102 21.131 37.3291 22.0552 36.6398 22.8712C36.1903 23.4037 35.7253 23.9548 35.5977 24.4323Z" fill="#FFCB78"/>
<path d="M32.4598 19.9993C32.4598 27.4171 26.4584 33.4312 19.0552 33.4312C18.6975 33.4312 18.3427 33.4167 17.9918 33.3887C11.0855 32.8464 5.65063 27.0585 5.65063 19.9993C5.65063 12.9402 11.0855 7.15323 17.9918 6.6109C18.3427 6.58286 18.6975 6.56836 19.0552 6.56836C26.4584 6.56836 32.4598 12.5815 32.4598 19.9993Z" fill="#FFA757"/>
<path d="M32.4597 19.9993C32.4597 27.4171 26.4583 33.4312 19.0551 33.4312C18.6974 33.4312 18.3426 33.4167 17.9917 33.3887C24.898 32.8464 30.3329 27.0585 30.3329 19.9993C30.3329 12.9402 24.898 7.15323 17.9917 6.6109C18.3426 6.58286 18.6974 6.56836 19.0551 6.56836C26.4583 6.56836 32.4597 12.5815 32.4597 19.9993Z" fill="#FF895A"/>
<path d="M9.49164 20.7333C9.89207 20.7333 10.2167 20.4087 10.2167 20.0082C10.2167 19.6078 9.89207 19.2832 9.49164 19.2832C9.09121 19.2832 8.7666 19.6078 8.7666 20.0082C8.7666 20.4087 9.09121 20.7333 9.49164 20.7333Z" fill="#FFCB78"/>
<path d="M10.1684 16.8192C10.5688 16.8192 10.8934 16.4946 10.8934 16.0942C10.8934 15.6938 10.5688 15.3691 10.1684 15.3691C9.76797 15.3691 9.44336 15.6938 9.44336 16.0942C9.44336 16.4946 9.76797 16.8192 10.1684 16.8192Z" fill="#FFCB78"/>
<path d="M10.1684 24.6493C10.5688 24.6493 10.8934 24.3247 10.8934 23.9243C10.8934 23.5238 10.5688 23.1992 10.1684 23.1992C9.76797 23.1992 9.44336 23.5238 9.44336 23.9243C9.44336 24.3247 9.76797 24.6493 10.1684 24.6493Z" fill="#FFCB78"/>
<path d="M28.6191 20.7333C29.0195 20.7333 29.3441 20.4087 29.3441 20.0082C29.3441 19.6078 29.0195 19.2832 28.6191 19.2832C28.2187 19.2832 27.894 19.6078 27.894 20.0082C27.894 20.4087 28.2187 20.7333 28.6191 20.7333Z" fill="#FFCB78"/>
<path d="M27.9426 16.8192C28.343 16.8192 28.6676 16.4946 28.6676 16.0942C28.6676 15.6938 28.343 15.3691 27.9426 15.3691C27.5421 15.3691 27.2175 15.6938 27.2175 16.0942C27.2175 16.4946 27.5421 16.8192 27.9426 16.8192Z" fill="#FFCB78"/>
<path d="M27.9426 24.6493C28.343 24.6493 28.6676 24.3247 28.6676 23.9243C28.6676 23.5238 28.343 23.1992 27.9426 23.1992C27.5421 23.1992 27.2175 23.5238 27.2175 23.9243C27.2175 24.3247 27.5421 24.6493 27.9426 24.6493Z" fill="#FFCB78"/>
</svg>
