<svg width="20" height="20" viewBox="0 0 20 20" fill="none" xmlns="http://www.w3.org/2000/svg">
<g clip-path="url(#clip0_892_20941)">
<path d="M1.39995 8.99922H7.39995V19.7992H3.19995C2.20795 19.7992 1.39995 18.9912 1.39995 17.9992V8.99922ZM12.6 19.7992H16.8C17.792 19.7992 18.6 18.9912 18.6 17.9992V8.99922H12.6V19.7992ZM18 3.39922H15.556C15.712 3.09922 15.8 2.75922 15.8 2.39922C15.8 1.18722 14.812 0.199219 13.6 0.199219H13.2C11.856 0.199219 10.676 0.903219 9.99995 1.95922C9.32395 0.903219 8.14395 0.199219 6.79995 0.199219H6.39995C5.18795 0.199219 4.19995 1.18722 4.19995 2.39922C4.19995 2.75922 4.28795 3.09922 4.44395 3.39922H1.99995C1.00795 3.39922 0.199951 4.20722 0.199951 5.19922V7.19922C0.199951 7.53122 0.467951 7.79922 0.799951 7.79922H7.39995V3.39922H6.39995C5.84795 3.39922 5.39995 2.95122 5.39995 2.39922C5.39995 1.84722 5.84795 1.39922 6.39995 1.39922H6.79995C8.02795 1.39922 9.05995 2.25522 9.33195 3.39922H8.59995V19.7992H11.4V3.39922H10.668C10.94 2.25522 11.972 1.39922 13.2 1.39922H13.6C14.152 1.39922 14.6 1.84722 14.6 2.39922C14.6 2.95122 14.152 3.39922 13.6 3.39922H12.6V7.79922H19.2C19.532 7.79922 19.8 7.53122 19.8 7.19922V5.19922C19.8 4.20722 18.992 3.39922 18 3.39922Z" fill="url(#paint0_linear_892_20941)"/>
</g>
<defs>
<linearGradient id="paint0_linear_892_20941" x1="9.99995" y1="19.7992" x2="9.99995" y2="0.199219" gradientUnits="userSpaceOnUse">
<stop stop-color="#765EA1"/>
<stop offset="1" stop-color="#996FC8"/>
</linearGradient>
<clipPath id="clip0_892_20941">
<rect width="20" height="20" fill="white"/>
</clipPath>
</defs>
</svg>
