<svg width="24" height="24" viewBox="0 0 24 24" fill="none" xmlns="http://www.w3.org/2000/svg">
<rect x="1" y="1" width="22" height="22" rx="11" fill="white" fill-opacity="0.32"/>
<rect x="1" y="1" width="22" height="22" rx="11" stroke="url(#paint0_linear_238_13967)" stroke-width="2"/>
<g filter="url(#filter0_d_238_13967)">
<path d="M10.875 14.4609L10.8672 13.8359C10.8438 12.7734 11.3047 12.0703 12.375 11.4297C13.3203 10.8594 13.6562 10.4062 13.6562 9.60938V9.60156C13.6562 8.71094 12.9531 8.07031 11.8906 8.07031C10.8125 8.07031 10.1406 8.72656 10.0547 9.67969L10.0469 9.75H8.42969L8.4375 9.65625C8.53906 7.97656 9.71094 6.63281 11.9766 6.63281C14.0312 6.63281 15.4297 7.85156 15.4297 9.53125V9.53906C15.4297 10.7422 14.8203 11.5938 13.7891 12.2109C12.7812 12.8047 12.4922 13.2266 12.4922 14.0156V14.4609H10.875ZM11.6953 18.0859C11.125 18.0859 10.6719 17.6406 10.6719 17.0703C10.6719 16.5 11.125 16.0625 11.6953 16.0625C12.2812 16.0625 12.7266 16.5 12.7266 17.0703C12.7266 17.6406 12.2812 18.0859 11.6953 18.0859Z" fill="url(#paint1_linear_238_13967)"/>
</g>
<defs>
<filter id="filter0_d_238_13967" x="8.42969" y="6.63281" width="7" height="12.4531" filterUnits="userSpaceOnUse" color-interpolation-filters="sRGB">
<feFlood flood-opacity="0" result="BackgroundImageFix"/>
<feColorMatrix in="SourceAlpha" type="matrix" values="0 0 0 0 0 0 0 0 0 0 0 0 0 0 0 0 0 0 127 0" result="hardAlpha"/>
<feOffset dy="1"/>
<feComposite in2="hardAlpha" operator="out"/>
<feColorMatrix type="matrix" values="0 0 0 0 0.227451 0 0 0 0 0.12549 0 0 0 0 0 0 0 0 1 0"/>
<feBlend mode="normal" in2="BackgroundImageFix" result="effect1_dropShadow_238_13967"/>
<feBlend mode="normal" in="SourceGraphic" in2="effect1_dropShadow_238_13967" result="shape"/>
</filter>
<linearGradient id="paint0_linear_238_13967" x1="12.625" y1="23.25" x2="12.625" y2="2" gradientUnits="userSpaceOnUse">
<stop stop-color="#BE6D00"/>
<stop offset="0.55" stop-color="#FFF57F"/>
<stop offset="1" stop-color="#DE9700"/>
</linearGradient>
<linearGradient id="paint1_linear_238_13967" x1="12" y1="7" x2="12" y2="18" gradientUnits="userSpaceOnUse">
<stop stop-color="#BE6D00"/>
<stop offset="0.5" stop-color="#FFF57F"/>
<stop offset="1" stop-color="#DE9700"/>
</linearGradient>
</defs>
</svg>
