<svg width="32" height="32" viewBox="0 0 32 32" fill="none" xmlns="http://www.w3.org/2000/svg">
<g clip-path="url(#clip0_916_23189)">
<path d="M16 32C24.8366 32 32 24.8366 32 16C32 7.16344 24.8366 0 16 0C7.16344 0 0 7.16344 0 16C0 24.8366 7.16344 32 16 32Z" fill="url(#paint0_linear_916_23189)"/>
<path d="M16 32C24.8366 32 32 24.8366 32 16C32 7.16344 24.8366 0 16 0C7.16344 0 0 7.16344 0 16C0 24.8366 7.16344 32 16 32Z" fill="url(#paint1_radial_916_23189)"/>
<path d="M16 32C24.8366 32 32 24.8366 32 16C32 7.16344 24.8366 0 16 0C7.16344 0 0 7.16344 0 16C0 24.8366 7.16344 32 16 32Z" fill="url(#paint2_radial_916_23189)"/>
<path d="M16 32C24.8366 32 32 24.8366 32 16C32 7.16344 24.8366 0 16 0C7.16344 0 0 7.16344 0 16C0 24.8366 7.16344 32 16 32Z" fill="url(#paint3_radial_916_23189)"/>
<path d="M16 32C24.8366 32 32 24.8366 32 16C32 7.16344 24.8366 0 16 0C7.16344 0 0 7.16344 0 16C0 24.8366 7.16344 32 16 32Z" fill="url(#paint4_radial_916_23189)"/>
<path d="M5.10352 25.5698C5.54027 26.0169 5.9822 26.4589 6.42933 26.8956C6.79939 27.2569 7.40983 27.2445 7.78664 26.8726C8.92427 25.7487 10.0606 24.6236 11.1958 23.4972C10.967 22.3826 10.7444 21.256 10.5244 20.123C8.71583 21.9371 6.90889 23.7527 5.10352 25.5698Z" fill="url(#paint5_linear_916_23189)"/>
<path d="M8.50182 20.8034C7.37551 21.9386 6.25039 23.075 5.12645 24.2125C4.75457 24.5893 4.74214 25.1998 5.10345 25.5698C5.46482 25.9399 6.0667 25.932 6.44195 25.5572L11.1983 20.8008C10.2948 20.8032 9.39507 20.8046 8.50182 20.8034Z" fill="url(#paint6_linear_916_23189)"/>
<path d="M21.4849 9.16797C21.937 9.61384 22.386 10.0628 22.8319 10.5149C23.2009 10.8892 23.1953 11.5006 22.8224 11.8764C21.6955 13.0111 20.5675 14.1445 19.4382 15.2768C18.3109 15.0477 17.178 14.822 16.0452 14.5958C17.8569 12.785 19.6702 10.9757 21.4849 9.16797Z" fill="url(#paint7_linear_916_23189)"/>
<path d="M16.7229 12.5617C17.8552 11.4324 18.9886 10.3043 20.1233 9.17754C20.499 8.8046 21.1105 8.79904 21.4848 9.16804C21.8591 9.53697 21.856 10.1435 21.4812 10.5187C19.8957 12.1041 18.3102 13.6896 16.7248 15.275C16.7247 14.3692 16.7247 13.4638 16.7229 12.5617Z" fill="url(#paint8_linear_916_23189)"/>
<path d="M9.83936 22.1605C10.2884 22.6095 10.7405 23.0553 11.1957 23.498C13.9504 20.7648 16.6979 18.0244 19.4382 15.2768C18.9878 14.8221 18.5364 14.3685 18.0838 13.916C17.631 13.9163 17.1779 13.9166 16.7246 13.9169C14.4293 16.2101 12.1365 18.5059 9.84623 20.8041C9.84373 21.2572 9.84136 21.7095 9.83936 22.1605Z" fill="url(#paint9_linear_916_23189)"/>
<path d="M18.0837 13.9169C17.6311 13.4644 17.1776 13.0129 16.723 12.5625C13.9754 15.3028 11.235 18.0503 8.50171 20.805C8.94446 21.2602 9.39027 21.7124 9.83927 22.1614L18.0837 13.9169Z" fill="url(#paint10_linear_916_23189)"/>
<path d="M26.2897 6.13281C26.0571 6.5725 25.8248 7.01288 25.5928 7.45382C25.814 7.89175 26.0331 8.3325 26.2506 8.77594C26.3871 9.05513 26.0913 9.35538 25.8221 9.20963C25.394 8.97831 24.963 8.74919 24.5291 8.522C24.0907 8.75344 23.6516 8.98475 23.2118 9.21594C22.9354 9.36125 22.6396 9.06538 22.7848 8.78894C23.016 8.34919 23.2473 7.91007 23.4788 7.47169C23.2516 7.03788 23.0225 6.60675 22.7911 6.17863C22.6454 5.90944 22.9457 5.61369 23.2248 5.75019C23.6682 5.96763 24.109 6.18682 24.547 6.408C24.9879 6.17594 25.4283 5.94363 25.868 5.71106C26.1449 5.56463 26.4362 5.85594 26.2897 6.13281Z" fill="url(#paint11_linear_916_23189)"/>
<path d="M19.4687 5.56996C19.2413 5.99858 19.0138 6.42865 18.7861 6.85996C19.0239 7.28608 19.2598 7.71471 19.4941 8.14565C19.6413 8.41683 19.3418 8.71352 19.0614 8.5734C18.6156 8.35096 18.1684 8.12933 17.7202 7.90833C17.2769 8.1364 16.8341 8.36408 16.3919 8.59127C16.1138 8.73421 15.8091 8.44277 15.951 8.1714C16.1768 7.73983 16.4023 7.30952 16.6275 6.88071C16.3871 6.45552 16.1449 6.03271 15.9006 5.61265C15.7468 5.34833 16.0421 5.06158 16.3284 5.19646C16.783 5.41121 17.2368 5.62633 17.6893 5.84221C18.1333 5.6159 18.5779 5.38896 19.0229 5.16158C19.3033 5.01858 19.6119 5.30015 19.4687 5.56996Z" fill="url(#paint12_linear_916_23189)"/>
<path d="M26.4305 12.531C26.0019 12.7583 25.5718 12.9858 25.1405 13.2136C24.7144 12.9758 24.2858 12.7398 23.8548 12.5056C23.5836 12.3584 23.287 12.6579 23.4271 12.9382C23.6495 13.384 23.8711 13.8312 24.0921 14.2795C23.8641 14.7227 23.6364 15.1655 23.4092 15.6078C23.2663 15.8859 23.5577 16.1905 23.8291 16.0486C24.2606 15.8228 24.691 15.5973 25.1198 15.3721C25.545 15.6125 25.9678 15.8548 26.3878 16.0991C26.6521 16.2529 26.9389 15.9575 26.804 15.6713C26.5893 15.2166 26.3741 14.7629 26.1583 14.3104C26.3846 13.8664 26.6115 13.4218 26.8389 12.9767C26.9819 12.6964 26.7003 12.3877 26.4305 12.531Z" fill="url(#paint13_linear_916_23189)"/>
</g>
<defs>
<linearGradient id="paint0_linear_916_23189" x1="4.68631" y1="27.3137" x2="27.3137" y2="4.68631" gradientUnits="userSpaceOnUse">
<stop stop-color="#364AFF"/>
<stop offset="1" stop-color="#FC54FF"/>
</linearGradient>
<radialGradient id="paint1_radial_916_23189" cx="0" cy="0" r="1" gradientUnits="userSpaceOnUse" gradientTransform="translate(16.0049 15.9916) rotate(45) scale(16.1601 24.0458)">
<stop offset="0.095" stop-color="#8D00DB" stop-opacity="0.66"/>
<stop offset="0.3381" stop-color="#B31DE7" stop-opacity="0.483"/>
<stop offset="0.6276" stop-color="#DB3BF4" stop-opacity="0.272"/>
<stop offset="0.8584" stop-color="#F34DFC" stop-opacity="0.103"/>
<stop offset="1" stop-color="#FC54FF" stop-opacity="0"/>
</radialGradient>
<radialGradient id="paint2_radial_916_23189" cx="0" cy="0" r="1" gradientUnits="userSpaceOnUse" gradientTransform="translate(24.3345 7.69719) scale(16.1625)">
<stop stop-color="white" stop-opacity="0.66"/>
<stop offset="0.0193" stop-color="#FFEFFF" stop-opacity="0.647"/>
<stop offset="0.0704" stop-color="#FECBFF" stop-opacity="0.614"/>
<stop offset="0.1279" stop-color="#FEABFF" stop-opacity="0.576"/>
<stop offset="0.1915" stop-color="#FD8FFF" stop-opacity="0.534"/>
<stop offset="0.2632" stop-color="#FD79FF" stop-opacity="0.486"/>
<stop offset="0.3471" stop-color="#FC68FF" stop-opacity="0.431"/>
<stop offset="0.4508" stop-color="#FC5DFF" stop-opacity="0.363"/>
<stop offset="0.5962" stop-color="#FC56FF" stop-opacity="0.267"/>
<stop offset="1" stop-color="#FC54FF" stop-opacity="0"/>
</radialGradient>
<radialGradient id="paint3_radial_916_23189" cx="0" cy="0" r="1" gradientUnits="userSpaceOnUse" gradientTransform="translate(17.7112 7.03169) scale(16.1625)">
<stop stop-color="white" stop-opacity="0.66"/>
<stop offset="0.0193" stop-color="#FFEFFF" stop-opacity="0.647"/>
<stop offset="0.0704" stop-color="#FECBFF" stop-opacity="0.614"/>
<stop offset="0.1279" stop-color="#FEABFF" stop-opacity="0.576"/>
<stop offset="0.1915" stop-color="#FD8FFF" stop-opacity="0.534"/>
<stop offset="0.2632" stop-color="#FD79FF" stop-opacity="0.486"/>
<stop offset="0.3471" stop-color="#FC68FF" stop-opacity="0.431"/>
<stop offset="0.4508" stop-color="#FC5DFF" stop-opacity="0.363"/>
<stop offset="0.5962" stop-color="#FC56FF" stop-opacity="0.267"/>
<stop offset="1" stop-color="#FC54FF" stop-opacity="0"/>
</radialGradient>
<radialGradient id="paint4_radial_916_23189" cx="0" cy="0" r="1" gradientUnits="userSpaceOnUse" gradientTransform="translate(25.0317 14.2571) scale(16.1625)">
<stop stop-color="white" stop-opacity="0.66"/>
<stop offset="0.0193" stop-color="#FFEFFF" stop-opacity="0.647"/>
<stop offset="0.0704" stop-color="#FECBFF" stop-opacity="0.614"/>
<stop offset="0.1279" stop-color="#FEABFF" stop-opacity="0.576"/>
<stop offset="0.1915" stop-color="#FD8FFF" stop-opacity="0.534"/>
<stop offset="0.2632" stop-color="#FD79FF" stop-opacity="0.486"/>
<stop offset="0.3471" stop-color="#FC68FF" stop-opacity="0.431"/>
<stop offset="0.4508" stop-color="#FC5DFF" stop-opacity="0.363"/>
<stop offset="0.5962" stop-color="#FC56FF" stop-opacity="0.267"/>
<stop offset="1" stop-color="#FC54FF" stop-opacity="0"/>
</radialGradient>
<linearGradient id="paint5_linear_916_23189" x1="8.14739" y1="28.4175" x2="8.14739" y2="15.2482" gradientUnits="userSpaceOnUse">
<stop stop-color="#FDA0FF"/>
<stop offset="0.1045" stop-color="#FDB0FF"/>
<stop offset="0.3578" stop-color="#FED2FF"/>
<stop offset="0.5984" stop-color="#FFEBFF"/>
<stop offset="0.8188" stop-color="#FFFAFF"/>
<stop offset="1" stop-color="white"/>
</linearGradient>
<linearGradient id="paint6_linear_916_23189" x1="8.0169" y1="28.3979" x2="8.0169" y2="19.3117" gradientUnits="userSpaceOnUse">
<stop stop-color="#FDA0FF"/>
<stop offset="0.0153" stop-color="#FDA3FF"/>
<stop offset="0.1973" stop-color="#FEC4FF"/>
<stop offset="0.3847" stop-color="#FEDEFF"/>
<stop offset="0.5772" stop-color="#FFF0FF"/>
<stop offset="0.7779" stop-color="#FFFBFF"/>
<stop offset="1" stop-color="white"/>
</linearGradient>
<linearGradient id="paint7_linear_916_23189" x1="19.5726" y1="16.5927" x2="19.5726" y2="2.76152" gradientUnits="userSpaceOnUse">
<stop stop-color="#FDA0FF"/>
<stop offset="0.0153" stop-color="#FDA3FF"/>
<stop offset="0.1973" stop-color="#FEC4FF"/>
<stop offset="0.3847" stop-color="#FEDEFF"/>
<stop offset="0.5772" stop-color="#FFF0FF"/>
<stop offset="0.7779" stop-color="#FFFBFF"/>
<stop offset="1" stop-color="white"/>
</linearGradient>
<linearGradient id="paint8_linear_916_23189" x1="19.2407" y1="16.3448" x2="19.2407" y2="7.85941" gradientUnits="userSpaceOnUse">
<stop stop-color="#FDA0FF"/>
<stop offset="0.0153" stop-color="#FDA3FF"/>
<stop offset="0.1973" stop-color="#FEC4FF"/>
<stop offset="0.3847" stop-color="#FEDEFF"/>
<stop offset="0.5772" stop-color="#FFF0FF"/>
<stop offset="0.7779" stop-color="#FFFBFF"/>
<stop offset="1" stop-color="white"/>
</linearGradient>
<linearGradient id="paint9_linear_916_23189" x1="14.6355" y1="26.3417" x2="14.6356" y2="12.7981" gradientUnits="userSpaceOnUse">
<stop stop-color="#B31DE7"/>
<stop offset="0.6317" stop-color="#E16EF6"/>
<stop offset="1" stop-color="#FDA0FF"/>
</linearGradient>
<linearGradient id="paint10_linear_916_23189" x1="13.2897" y1="28.2085" x2="13.2897" y2="13.5094" gradientUnits="userSpaceOnUse">
<stop stop-color="#B31DE7"/>
<stop offset="0.216" stop-color="#C63FED"/>
<stop offset="0.5775" stop-color="#E473F7"/>
<stop offset="0.8501" stop-color="#F694FD"/>
<stop offset="1" stop-color="#FDA0FF"/>
</linearGradient>
<linearGradient id="paint11_linear_916_23189" x1="24.5378" y1="10.1536" x2="24.5378" y2="3.65175" gradientUnits="userSpaceOnUse">
<stop stop-color="#FDA0FF"/>
<stop offset="0.0153" stop-color="#FDA3FF"/>
<stop offset="0.1973" stop-color="#FEC4FF"/>
<stop offset="0.3847" stop-color="#FEDEFF"/>
<stop offset="0.5772" stop-color="#FFF0FF"/>
<stop offset="0.7779" stop-color="#FFFBFF"/>
<stop offset="1" stop-color="white"/>
</linearGradient>
<linearGradient id="paint12_linear_916_23189" x1="17.6957" y1="9.50927" x2="17.6957" y2="3.14615" gradientUnits="userSpaceOnUse">
<stop stop-color="#FDA0FF"/>
<stop offset="0.0153" stop-color="#FDA3FF"/>
<stop offset="0.1973" stop-color="#FEC4FF"/>
<stop offset="0.3847" stop-color="#FEDEFF"/>
<stop offset="0.5772" stop-color="#FFF0FF"/>
<stop offset="0.7779" stop-color="#FFFBFF"/>
<stop offset="1" stop-color="white"/>
</linearGradient>
<linearGradient id="paint13_linear_916_23189" x1="23.4499" y1="15.972" x2="26.8085" y2="12.6135" gradientUnits="userSpaceOnUse">
<stop stop-color="#FDA0FF"/>
<stop offset="0.0153" stop-color="#FDA3FF"/>
<stop offset="0.1973" stop-color="#FEC4FF"/>
<stop offset="0.3847" stop-color="#FEDEFF"/>
<stop offset="0.5772" stop-color="#FFF0FF"/>
<stop offset="0.7779" stop-color="#FFFBFF"/>
<stop offset="1" stop-color="white"/>
</linearGradient>
<clipPath id="clip0_916_23189">
<rect width="32" height="32" fill="white"/>
</clipPath>
</defs>
</svg>
