<svg width="24" height="24" viewBox="0 0 24 24" fill="none" xmlns="http://www.w3.org/2000/svg">
<path fill-rule="evenodd" clip-rule="evenodd" d="M13.247 1.5C9.75201 1.5 7.31601 4.238 7.31601 6.695C7.31601 8.774 6.73901 9.735 6.22901 10.583C5.82001 11.264 5.49701 11.802 5.49701 12.971C5.66401 14.857 6.90901 15.848 13.247 15.848C19.55 15.848 20.834 14.813 21 12.906C20.997 11.802 20.674 11.264 20.265 10.583C19.755 9.735 19.178 8.774 19.178 6.695C19.178 4.238 16.742 1.5 13.247 1.5ZM13.247 17.348C8.57101 17.348 4.34501 17.018 4.00001 13.035C3.99701 11.387 4.50001 10.549 4.94401 9.811C5.39301 9.063 5.81601 8.358 5.81601 6.695C5.81601 3.462 8.80201 0 13.247 0C17.692 0 20.678 3.462 20.678 6.695C20.678 8.358 21.101 9.063 21.55 9.811C21.994 10.549 22.497 11.387 22.497 12.971C22.148 17.018 17.923 17.348 13.247 17.348Z" fill="white"/>
<path fill-rule="evenodd" clip-rule="evenodd" d="M13.1983 21.5006H13.1963C12.0753 21.4996 11.0143 21.0056 10.2093 20.1086C9.93227 19.8016 9.95727 19.3266 10.2653 19.0506C10.5733 18.7726 11.0473 18.7976 11.3243 19.1066C11.8423 19.6836 12.5073 20.0006 13.1973 20.0006C13.8903 20.0006 14.5593 19.6836 15.0783 19.1056C15.3563 18.7986 15.8303 18.7736 16.1373 19.0506C16.4453 19.3276 16.4703 19.8026 16.1933 20.1096C15.3853 21.0066 14.3223 21.5006 13.1983 21.5006Z" fill="white"/>
</svg>
