<svg width="28" height="28" viewBox="0 0 28 28" fill="none" xmlns="http://www.w3.org/2000/svg">
<path d="M19.18 9.42375C19.4121 9.42375 19.6346 9.51594 19.7987 9.68003C19.9628 9.84413 20.055 10.0667 20.055 10.2988C20.055 10.5308 19.9628 10.7534 19.7987 10.9175C19.6346 11.0816 19.4121 11.1738 19.18 11.1738C18.5565 11.1714 17.9591 10.9227 17.5182 10.4818C17.0773 10.0409 16.8286 9.44354 16.8262 8.82V5.85375C16.8286 5.23021 17.0773 4.63286 17.5182 4.19194C17.9591 3.75103 18.5565 3.50231 19.18 3.5H23.625C23.8571 3.5 24.0796 3.59219 24.2437 3.75628C24.4078 3.92038 24.5 4.14294 24.5 4.375C24.5 9.71248 22.3797 14.8314 18.6055 18.6055C14.8314 22.3797 9.71248 24.5 4.375 24.5C4.14293 24.5 3.92038 24.4078 3.75628 24.2437C3.59219 24.0796 3.5 23.8571 3.5 23.625V19.18C3.50231 18.5565 3.75103 17.9591 4.19194 17.5182C4.63286 17.0773 5.23021 16.8286 5.85375 16.8263H8.82C9.44354 16.8286 10.0409 17.0773 10.4818 17.5182C10.9227 17.9591 11.1714 18.5565 11.1737 19.18C11.1737 19.4121 11.0816 19.6346 10.9175 19.7987C10.7534 19.9628 10.5308 20.055 10.2987 20.055C10.0667 20.055 9.84413 19.9628 9.68003 19.7987C9.51594 19.6346 9.42375 19.4121 9.42375 19.18C9.42375 19.1007 9.40813 19.0222 9.37779 18.949C9.34745 18.8757 9.30298 18.8091 9.24692 18.7531C9.19085 18.697 9.1243 18.6525 9.05104 18.6222C8.97779 18.5919 8.89929 18.5763 8.82 18.5763H5.85375C5.69363 18.5763 5.54006 18.6399 5.42683 18.7531C5.31361 18.8663 5.25 19.0199 5.25 19.18V22.68C9.80345 22.4578 14.1117 20.5509 17.3378 17.3297C20.5638 14.1085 22.4772 9.80311 22.7062 5.25H19.2062C19.0461 5.25 18.8926 5.31361 18.7793 5.42683C18.6661 5.54006 18.6025 5.69363 18.6025 5.85375V8.82C18.6024 8.97568 18.6623 9.1254 18.77 9.2379C18.8776 9.3504 19.0245 9.41698 19.18 9.42375Z" fill="white"/>
</svg>
