<svg width="26" height="27" viewBox="0 0 26 27" fill="none" xmlns="http://www.w3.org/2000/svg">
<g clip-path="url(#clip0_38_77204)">
<path d="M12.9999 25.9466C19.9087 25.9466 25.5094 20.346 25.5094 13.4372C25.5094 6.52841 19.9087 0.927734 12.9999 0.927734C6.09115 0.927734 0.490479 6.52841 0.490479 13.4372C0.490479 20.346 6.09115 25.9466 12.9999 25.9466Z" fill="#F68F00"/>
<path d="M18.6415 11.7209H14.717V7.79642C14.717 7.38997 14.3876 7.06055 13.9811 7.06055H12.0188C11.6124 7.06055 11.283 7.38997 11.283 7.79642V11.7209H7.35843C6.95198 11.7209 6.62256 12.0504 6.62256 12.4568V14.4191C6.62256 14.8256 6.95198 15.155 7.35843 15.155H11.283V19.0795C11.283 19.486 11.6124 19.8154 12.0188 19.8154H13.9811C14.3876 19.8154 14.717 19.486 14.717 19.0795V15.155H18.6415C19.048 15.155 19.3774 14.8256 19.3774 14.4191V12.4568C19.3774 12.0504 19.048 11.7209 18.6415 11.7209Z" fill="white"/>
<path d="M18.6414 11.4749H14.9622V7.7956C14.9622 7.25376 14.5229 6.81445 13.981 6.81445H12.0187C11.4769 6.81445 11.0376 7.25376 11.0376 7.7956V11.4749H7.35834C6.81651 11.4749 6.3772 11.9142 6.3772 12.456V14.4183C6.3772 14.9601 6.81651 15.3994 7.35834 15.3994H11.0376V19.0787C11.0376 19.6205 11.4769 20.0598 12.0187 20.0598H13.981C14.5229 20.0598 14.9622 19.6205 14.9622 19.0787V15.3994H18.6414C19.1833 15.3994 19.6226 14.9601 19.6226 14.4183V12.456C19.6226 11.9142 19.1833 11.4749 18.6414 11.4749ZM19.132 14.4183C19.132 14.6893 18.9125 14.9088 18.6415 14.9088H14.4717V19.0786C14.4717 19.3497 14.2521 19.5692 13.9811 19.5692H12.0188C11.7478 19.5692 11.5283 19.3497 11.5283 19.0786V14.9088H7.35849C7.08747 14.9088 6.86795 14.6893 6.86795 14.4183V12.456C6.86795 12.185 7.08747 11.9654 7.35849 11.9654H11.5283V7.79565C11.5283 7.52463 11.7478 7.3051 12.0188 7.3051H13.9811C14.2521 7.3051 14.4717 7.52463 14.4717 7.79565V11.9654H18.6415C18.9125 11.9654 19.132 12.185 19.132 12.456V14.4183Z" fill="white"/>
<g opacity="0.1">
<path d="M25.0189 13.1914C25.0189 19.8293 19.6379 25.2103 13.0001 25.2103C6.36224 25.2103 0.981201 19.8292 0.981201 13.1914C0.981201 13.2724 0.981201 13.3533 0.981201 13.4367C0.981201 20.0746 6.36224 25.4555 13.0001 25.4555C19.6379 25.4555 25.0189 20.0746 25.0189 13.4367C25.0189 13.3533 25.0189 13.2724 25.0189 13.1914ZM14.9623 15.399V16.3801H18.6416C19.1834 16.3801 19.6227 15.9408 19.6227 15.399V14.4178C19.6227 14.9597 19.1834 15.399 18.6416 15.399H14.9623ZM12.0189 20.0593C11.4771 20.0593 11.0378 19.62 11.0378 19.0782V20.0593C11.0378 20.6012 11.4771 21.0405 12.0189 21.0405H13.9812C14.523 21.0405 14.9623 20.6012 14.9623 20.0593V19.0782C14.9623 19.62 14.523 20.0593 13.9812 20.0593H12.0189ZM7.35856 16.3801H11.0378V15.3989H7.35856C6.81673 15.3989 6.37742 14.9596 6.37742 14.4178V15.3989C6.37742 15.9408 6.81673 16.3801 7.35856 16.3801ZM7.35856 14.9084H11.5284V14.4178H7.35856C7.08755 14.4178 6.86802 14.1983 6.86802 13.9273V14.4178C6.86797 14.6888 7.08749 14.9084 7.35856 14.9084ZM19.1321 14.4178V13.9273C19.1321 14.1983 18.9126 14.4178 18.6416 14.4178H14.4718V14.9084H18.6416C18.9126 14.9084 19.1321 14.6888 19.1321 14.4178ZM11.5284 19.0782C11.5284 19.3492 11.7479 19.5687 12.0189 19.5687H13.9812C14.2522 19.5687 14.4717 19.3492 14.4717 19.0782V18.5876C14.4717 18.8586 14.2522 19.0782 13.9812 19.0782H12.0189C11.7479 19.0782 11.5284 18.8586 11.5284 18.5876V19.0782Z" fill="black"/>
</g>
<path d="M13 0.4375C5.82034 0.4375 0 6.25784 0 13.4375C0 20.6172 5.82034 26.4375 13 26.4375C20.1797 26.4375 26 20.6172 26 13.4375C26 6.25784 20.1797 0.4375 13 0.4375ZM13 25.4564C6.36213 25.4564 0.981144 20.0754 0.981144 13.4375C0.981144 6.79963 6.36213 1.41864 13 1.41864C19.6379 1.41864 25.0189 6.79963 25.0189 13.4375C25.0189 20.0754 19.6379 25.4564 13 25.4564Z" fill="white"/>
</g>
<defs>
<clipPath id="clip0_38_77204">
<rect width="26" height="26" fill="white" transform="translate(0 0.4375)"/>
</clipPath>
</defs>
</svg>
