<svg width="26" height="26" viewBox="0 0 26 26" fill="none" xmlns="http://www.w3.org/2000/svg">
<g clip-path="url(#clip0_1366_25078)">
<path d="M12.9997 25.5091C19.9085 25.5091 25.5091 19.9085 25.5091 12.9997C25.5091 6.09091 19.9085 0.490234 12.9997 0.490234C6.09091 0.490234 0.490234 6.09091 0.490234 12.9997C0.490234 19.9085 6.09091 25.5091 12.9997 25.5091Z" fill="url(#paint0_linear_1366_25078)"/>
<path d="M18.642 11.2834H14.7175V7.35892C14.7175 6.95247 14.3881 6.62305 13.9816 6.62305H12.0193C11.6129 6.62305 11.2834 6.95247 11.2834 7.35892V11.2834H7.35892C6.95247 11.2834 6.62305 11.6129 6.62305 12.0193V13.9816C6.62305 14.3881 6.95247 14.7175 7.35892 14.7175H11.2834V18.642C11.2834 19.0485 11.6129 19.3779 12.0193 19.3779H13.9816C14.3881 19.3779 14.7175 19.0485 14.7175 18.642V14.7175H18.642C19.0485 14.7175 19.3779 14.3881 19.3779 13.9816V12.0193C19.3779 11.6129 19.0485 11.2834 18.642 11.2834Z" fill="white"/>
<path d="M18.6412 11.0374H14.9619V7.3581C14.9619 6.81626 14.5226 6.37695 13.9808 6.37695H12.0185C11.4767 6.37695 11.0374 6.81626 11.0374 7.3581V11.0374H7.3581C6.81626 11.0374 6.37695 11.4767 6.37695 12.0185V13.9808C6.37695 14.5226 6.81626 14.9619 7.3581 14.9619H11.0374V18.6412C11.0374 19.183 11.4767 19.6223 12.0185 19.6223H13.9808C14.5226 19.6223 14.9619 19.183 14.9619 18.6412V14.9619H18.6412C19.183 14.9619 19.6223 14.5226 19.6223 13.9808V12.0185C19.6223 11.4767 19.183 11.0374 18.6412 11.0374ZM19.1318 13.9808C19.1318 14.2518 18.9123 14.4713 18.6412 14.4713H14.4714V18.6411C14.4714 18.9122 14.2519 19.1317 13.9809 19.1317H12.0186C11.7476 19.1317 11.5281 18.9122 11.5281 18.6411V14.4713H7.35825C7.08723 14.4713 6.8677 14.2518 6.8677 13.9808V12.0185C6.8677 11.7475 7.08723 11.5279 7.35825 11.5279H11.5281V7.35815C11.5281 7.08713 11.7476 6.8676 12.0186 6.8676H13.9809C14.2519 6.8676 14.4714 7.08713 14.4714 7.35815V11.5279H18.6412C18.9123 11.5279 19.1318 11.7475 19.1318 12.0185V13.9808Z" fill="white"/>
<g opacity="0.1">
<path d="M25.0182 12.7539C25.0182 19.3918 19.6371 24.7728 12.9993 24.7728C6.3615 24.7728 0.980469 19.3917 0.980469 12.7539C0.980469 12.8349 0.980469 12.9158 0.980469 12.9992C0.980469 19.6371 6.3615 25.018 12.9993 25.018C19.6371 25.018 25.0182 19.6371 25.0182 12.9992C25.0182 12.9158 25.0182 12.8349 25.0182 12.7539ZM14.9616 14.9615V15.9426H18.6409C19.1827 15.9426 19.622 15.5033 19.622 14.9615V13.9803C19.622 14.5222 19.1827 14.9615 18.6409 14.9615H14.9616ZM12.0182 19.6218C11.4763 19.6218 11.037 19.1825 11.037 18.6407V19.6218C11.037 20.1637 11.4763 20.603 12.0182 20.603H13.9805C14.5223 20.603 14.9616 20.1637 14.9616 19.6218V18.6407C14.9616 19.1825 14.5223 19.6218 13.9805 19.6218H12.0182ZM7.35783 15.9426H11.0371V14.9614H7.35783C6.816 14.9614 6.37669 14.5221 6.37669 13.9803V14.9614C6.37669 15.5033 6.816 15.9426 7.35783 15.9426ZM7.35783 14.4709H11.5276V13.9803H7.35783C7.08681 13.9803 6.86729 13.7608 6.86729 13.4898V13.9803C6.86723 14.2513 7.08676 14.4709 7.35783 14.4709ZM19.1314 13.9803V13.4898C19.1314 13.7608 18.9119 13.9803 18.6409 13.9803H14.4711V14.4709H18.6409C18.9119 14.4709 19.1314 14.2513 19.1314 13.9803ZM11.5276 18.6407C11.5276 18.9117 11.7472 19.1312 12.0182 19.1312H13.9805C14.2515 19.1312 14.471 18.9117 14.471 18.6407V18.1501C14.471 18.4211 14.2515 18.6407 13.9805 18.6407H12.0182C11.7472 18.6407 11.5276 18.4211 11.5276 18.1501V18.6407Z" fill="black"/>
</g>
<path d="M13 0C5.82034 0 0 5.82034 0 13C0 20.1797 5.82034 26 13 26C20.1797 26 26 20.1797 26 13C26 5.82034 20.1797 0 13 0ZM13 25.0189C6.36213 25.0189 0.981144 19.6379 0.981144 13C0.981144 6.36213 6.36213 0.981144 13 0.981144C19.6379 0.981144 25.0189 6.36213 25.0189 13C25.0189 19.6379 19.6379 25.0189 13 25.0189Z" fill="white"/>
</g>
<defs>
<linearGradient id="paint0_linear_1366_25078" x1="12.9997" y1="0.490234" x2="12.9997" y2="25.5091" gradientUnits="userSpaceOnUse">
<stop stop-color="#8AFFE1"/>
<stop offset="1" stop-color="#0056E0"/>
</linearGradient>
<clipPath id="clip0_1366_25078">
<rect width="26" height="26" fill="white"/>
</clipPath>
</defs>
</svg>
