<svg width="24" height="24" viewBox="0 0 24 24" fill="none" xmlns="http://www.w3.org/2000/svg">
<g clip-path="url(#clip0_51_13062)">
<path d="M12.03 1.80953C14.7815 2.72078 17.6057 3.79375 20.0207 4.73031C20.1885 5.82953 20.4187 7.71484 20.4628 9.99391C20.5017 12.5898 20.287 14.0219 20.1918 14.5211C19.9926 15.2087 19.5745 15.9559 18.9492 16.7416C18.2076 17.6725 17.1979 18.6405 15.9482 19.6178C15.9473 19.6183 15.9464 19.6192 15.9459 19.6197C14.1698 21.0137 12.5254 21.9123 12.03 22.1711C11.5345 21.9128 9.89198 21.0161 8.11683 19.623L8.11448 19.6211C6.86526 18.6442 5.85604 17.6767 5.11589 16.7463C4.52198 15.9995 4.11511 15.287 3.90511 14.6284C3.89948 14.6064 3.89339 14.5844 3.88636 14.5619C3.79261 14.2445 3.4912 12.9662 3.53667 9.82C3.58636 7.81562 3.77011 6.025 4.05698 4.71812C6.46448 3.78578 9.28026 2.7175 12.03 1.80906M12.03 0.00390625C11.8889 0.00390625 11.7473 0.0264062 11.6099 0.071875C8.91417 0.957812 6.14901 1.99703 3.33698 3.08641C2.9587 3.23312 2.64136 3.50453 2.43511 3.83453C2.45104 3.83641 1.85714 5.69031 1.75589 9.78484C1.69589 13.8798 2.20589 15.1066 2.18901 15.108C2.46511 16.008 2.98167 16.9234 3.72182 17.8544C4.54917 18.8941 5.66714 19.968 7.01761 21.0236C9.25307 22.7781 11.3451 23.8267 11.4328 23.8637C11.6221 23.9566 11.8232 24.0034 12.0304 24.0034H12.0309C12.2385 24.0034 12.4396 23.9561 12.629 23.8628C12.7171 23.8258 14.8115 22.7739 17.046 21.0198C18.397 19.9633 19.5149 18.8894 20.3428 17.8502C21.1359 16.8531 21.6721 15.8748 21.9314 14.9139C21.921 14.9125 22.296 13.4087 22.244 9.96297C22.1779 6.51766 21.6979 3.97656 21.7045 3.97422C21.5048 3.58469 21.1546 3.25891 20.7262 3.0925C17.9137 2.00266 15.1481 0.961562 12.4518 0.0728125C12.3135 0.0273437 12.172 0.004375 12.0304 0.004375L12.03 0.00390625Z" fill="white"/>
<path d="M12.0288 16.5504C11.5151 16.5504 11.0323 16.3507 10.6694 15.9874C10.3062 15.6241 10.106 15.1413 10.106 14.628V13.1266C9.32038 12.5384 8.85069 11.6168 8.85022 10.6095C8.85022 8.87273 10.263 7.45945 11.9998 7.45898C12.8412 7.45898 13.6324 7.78664 14.2273 8.38148C14.8221 8.97633 15.1502 9.76758 15.1502 10.609C15.1502 11.5854 14.7016 12.4915 13.9512 13.0826V14.628C13.9512 15.1418 13.7515 15.6246 13.3882 15.9874C13.0249 16.3507 12.5421 16.5504 12.0288 16.5509V16.5504ZM12.0002 9.23977C11.2455 9.23977 10.6315 9.85383 10.6315 10.6085C10.6315 11.1316 10.923 11.6018 11.3927 11.8352C11.6955 11.9857 11.8868 12.2946 11.8868 12.6326V14.6276C11.8868 14.7054 11.9505 14.7691 12.0283 14.7691C12.0766 14.7691 12.1094 14.7466 12.1282 14.7279C12.1469 14.7091 12.1694 14.6763 12.1694 14.628V12.6045C12.1694 12.2754 12.3508 11.973 12.6415 11.8184C13.0901 11.5793 13.369 11.1162 13.3685 10.609C13.3685 10.2434 13.226 9.89977 12.9677 9.64102C12.709 9.38273 12.3654 9.24023 11.9998 9.24023L12.0002 9.23977Z" fill="white"/>
</g>
<defs>
<clipPath id="clip0_51_13062">
<rect width="24" height="24" fill="white"/>
</clipPath>
</defs>
</svg>
