<svg width="14" height="15" viewBox="0 0 14 15" fill="none" xmlns="http://www.w3.org/2000/svg">
<g clip-path="url(#clip0_38_78143)">
<path d="M8.35213 6.1875C8.26638 6.1875 8.18063 6.16242 8.10597 6.11167L6.99997 5.35917L5.89397 6.11167C5.74405 6.21433 5.54572 6.21317 5.39697 6.10817C5.24822 6.00433 5.1788 5.81883 5.22372 5.64208L5.57197 4.2695L4.52838 3.37875C4.39247 3.26208 4.34055 3.07542 4.3983 2.90625C4.45547 2.7365 4.60947 2.61925 4.78797 2.60875L6.10922 2.53408L6.58988 1.2245C6.6523 1.05183 6.8168 0.9375 6.99997 0.9375C7.18313 0.9375 7.34763 1.05183 7.41063 1.2245L7.8913 2.53408L9.21255 2.60875C9.39105 2.61925 9.54505 2.7365 9.60222 2.90625C9.65938 3.07542 9.60805 3.26208 9.47213 3.37875L8.42855 4.27008L8.7768 5.64267C8.82172 5.81942 8.7523 6.00433 8.60355 6.10875C8.52772 6.16125 8.43963 6.1875 8.35213 6.1875Z" fill="white"/>
<path d="M13.5625 12.0195H10.7917V14.4987C10.7917 14.6504 10.7625 14.802 10.7158 14.9362H13.5625C13.8017 14.9362 14 14.7379 14 14.4987V12.457C14 12.2179 13.8017 12.0195 13.5625 12.0195Z" fill="white"/>
<path d="M3.20833 10.8555H0.4375C0.198333 10.8555 0 11.0538 0 11.293V14.5013C0 14.7405 0.198333 14.9388 0.4375 14.9388H3.28417C3.2375 14.8046 3.20833 14.653 3.20833 14.5013V10.8555Z" fill="white"/>
<path d="M9.47933 7.35547H4.521C4.2795 7.35547 4.0835 7.55147 4.0835 7.79297V14.5013C4.0835 14.7428 4.2795 14.9388 4.521 14.9388H9.47933C9.72083 14.9388 9.91683 14.7428 9.91683 14.5013V7.79297C9.91683 7.55147 9.72083 7.35547 9.47933 7.35547ZM7.43766 12.168C7.43766 12.4095 7.24166 12.6055 7.00016 12.6055C6.75866 12.6055 6.56266 12.4095 6.56266 12.168V10.4524C6.47341 10.3725 6.41683 10.2558 6.41683 10.1263C6.41683 9.8848 6.61283 9.6888 6.85433 9.6888H7.00016C7.24166 9.6888 7.43766 9.8848 7.43766 10.1263V12.168Z" fill="white"/>
</g>
<defs>
<clipPath id="clip0_38_78143">
<rect width="14" height="14" fill="white" transform="translate(0 0.9375)"/>
</clipPath>
</defs>
</svg>
