<svg width="40" height="39" viewBox="0 0 40 39" fill="none" xmlns="http://www.w3.org/2000/svg">
<path d="M36 20C35.9062 25.35 34.9625 29.6562 32.2687 32.2687C29.6562 34.9625 25.35 35.9062 20 36C14.65 35.9062 10.3438 34.9625 7.73125 32.2687C5.0375 29.6562 4.09375 25.35 4 20C4.09375 14.65 5.0375 10.3438 7.73125 7.73125C10.3438 5.0375 14.65 4.09375 20 4C25.35 4.09375 29.6562 5.0375 32.2687 7.73125C34.9625 10.3438 35.9062 14.65 36 20Z" fill="url(#paint0_linear_2006_2748)"/>
<path d="M20 36C25.35 35.9062 29.6562 34.9625 32.2687 32.2687C34.9625 29.6562 35.9062 25.35 36 20C35.9062 14.65 34.9625 10.3438 32.2687 7.73125C29.6562 5.0375 25.35 4.09375 20 4C14.65 4.09375 10.3438 5.0375 7.73125 7.73125C5.0375 10.3438 4.09375 14.65 4 20C4.09375 25.35 5.0375 29.6562 7.73125 32.2687C10.3438 34.9625 14.65 35.9062 20 36Z" fill="url(#paint1_radial_2006_2748)"/>
<path d="M4 20C4.09375 25.35 5.0375 29.6562 7.73125 32.2687C10.3438 34.9625 14.65 35.9062 20 36C25.35 35.9062 29.6562 34.9625 32.2687 32.2687C34.9625 29.6562 35.9062 25.35 36 20C35.9062 14.65 34.9625 10.3438 32.2687 7.73125C29.6562 5.0375 25.35 4.09375 20 4C14.65 4.09375 10.3438 5.0375 7.73125 7.73125C5.0375 10.3438 4.09375 14.65 4 20Z" fill="url(#paint2_radial_2006_2748)"/>
<path d="M36 20C35.9062 25.35 34.9625 29.6562 32.2687 32.2687C29.6562 34.9625 25.35 35.9062 20 36C14.65 35.9062 10.3438 34.9625 7.73125 32.2687C5.0375 29.6562 4.09375 25.35 4 20C4.09375 14.65 5.0375 10.3438 7.73125 7.73125C10.3438 5.0375 14.65 4.09375 20 4C25.35 4.09375 29.6562 5.0375 32.2687 7.73125C34.9625 10.3438 35.9062 14.65 36 20Z" fill="url(#paint3_radial_2006_2748)"/>
<path d="M20 36C25.35 35.9062 29.6562 34.9625 32.2687 32.2687C34.9625 29.6562 35.9062 25.35 36 20C35.9062 14.65 34.9625 10.3438 32.2687 7.73125C29.6562 5.0375 25.35 4.09375 20 4C14.65 4.09375 10.3438 5.0375 7.73125 7.73125C5.0375 10.3438 4.09375 14.65 4 20C4.09375 25.35 5.0375 29.6562 7.73125 32.2687C10.3438 34.9625 14.65 35.9062 20 36Z" fill="url(#paint4_radial_2006_2748)"/>
<path d="M29.6625 18.4625C29.4188 18.4187 29.1938 18.3125 29.0063 18.1562C28.825 18 28.6813 17.7937 28.6 17.5562C28.4875 17.2312 28.3563 16.9125 28.2063 16.6062C27.9875 16.1562 28.0313 15.6187 28.3188 15.2125C28.7 14.6625 28.6375 13.9187 28.1625 13.4437L27.35 12.6437C26.875 12.1687 26.1313 12.1062 25.5813 12.4875C25.3438 12.65 25.0688 12.7375 24.7875 12.7375C24.5813 12.7375 24.375 12.6937 24.1813 12.6C23.875 12.45 23.5563 12.3187 23.2313 12.2062C22.7563 12.0437 22.4125 11.6375 22.325 11.1437C22.2688 10.8125 22.0938 10.5312 21.85 10.325C21.6063 10.1188 21.3 10 20.9625 10H19.825C19.1563 10 18.5813 10.4813 18.4625 11.1375C18.4188 11.3812 18.3125 11.6062 18.1563 11.7937C18 11.975 17.7938 12.1187 17.5563 12.2C17.2313 12.3125 16.9125 12.4437 16.6063 12.5937C16.1563 12.8125 15.625 12.7687 15.2125 12.4812C14.975 12.3125 14.7 12.2312 14.425 12.2312C14.0688 12.2312 13.7125 12.3687 13.45 12.6375L12.6438 13.4437C12.1688 13.9187 12.1063 14.6625 12.4875 15.2125C12.775 15.625 12.8188 16.1562 12.6 16.6062C12.45 16.9125 12.3188 17.2312 12.2063 17.5562C12.0438 18.0312 11.6375 18.375 11.1438 18.4625C10.8125 18.5187 10.5312 18.6937 10.325 18.9375C10.125 19.1812 10 19.4875 10 19.825V20.9625C10 21.6312 10.4812 22.2062 11.1375 22.325C11.3813 22.3687 11.6063 22.475 11.7938 22.6312C11.9813 22.7875 12.1188 22.9937 12.2 23.2312C12.3125 23.5562 12.4438 23.875 12.5938 24.1812C12.8125 24.6312 12.7688 25.1625 12.4813 25.575C12.3125 25.8125 12.2313 26.0937 12.2313 26.3687C12.2313 26.725 12.3688 27.075 12.6375 27.3437L13.4438 28.15C13.9188 28.625 14.6625 28.6875 15.2125 28.3062C15.625 28.0187 16.1563 27.975 16.6063 28.1937C16.9125 28.3437 17.2313 28.475 17.5563 28.5875C18.0313 28.75 18.375 29.1562 18.4625 29.65C18.5188 29.9812 18.6938 30.2625 18.9375 30.4687C19.1813 30.6687 19.4875 30.7937 19.825 30.7937H20.9625C21.6313 30.7937 22.2063 30.3125 22.325 29.6562C22.3688 29.4125 22.475 29.1875 22.6313 29C22.7875 28.8187 22.9938 28.675 23.2313 28.5937C23.5563 28.4812 23.875 28.35 24.1813 28.2C24.6313 27.9812 25.1688 28.025 25.575 28.3125C26.125 28.6937 26.8688 28.6312 27.3438 28.1562L28.15 27.35C28.625 26.875 28.6875 26.1312 28.3063 25.5812C28.1438 25.3437 28.0563 25.0687 28.0563 24.7875C28.0563 24.5812 28.1 24.375 28.1938 24.1812C28.3438 23.875 28.475 23.5562 28.5875 23.2312C28.75 22.7562 29.1563 22.4125 29.65 22.325C29.9813 22.2687 30.2625 22.0937 30.4688 21.85C30.6688 21.6062 30.7938 21.3 30.7938 20.9625V19.825C30.8 19.1562 30.3188 18.5812 29.6625 18.4625ZM20.4063 25.5937C18.9688 25.5937 17.6688 25.0125 16.7313 24.0687C15.7875 23.1312 15.2063 21.8312 15.2063 20.3937C15.2063 18.9562 15.7875 17.6562 16.7313 16.7187C17.675 15.775 18.975 15.1937 20.4063 15.1937C23.275 15.1937 25.6063 17.5187 25.6063 20.3937C25.6063 23.2687 23.275 25.5937 20.4063 25.5937Z" fill="url(#paint5_linear_2006_2748)"/>
<path d="M29.6625 18.4625C29.4188 18.4187 29.1938 18.3125 29.0063 18.1562C28.825 18 28.6813 17.7937 28.6 17.5562C28.4875 17.2312 28.3563 16.9125 28.2063 16.6062C27.9875 16.1562 28.0313 15.6187 28.3188 15.2125C28.7 14.6625 28.6375 13.9187 28.1625 13.4437L27.35 12.6437C26.875 12.1687 26.1313 12.1062 25.5813 12.4875C25.3438 12.65 25.0688 12.7375 24.7875 12.7375C24.5813 12.7375 24.375 12.6937 24.1813 12.6C23.875 12.45 23.5563 12.3187 23.2313 12.2062C22.7563 12.0437 22.4125 11.6375 22.325 11.1437C22.2688 10.8125 22.0938 10.5312 21.85 10.325C21.6063 10.1188 21.3 10 20.9625 10H19.825C19.1563 10 18.5813 10.4813 18.4625 11.1375C18.4188 11.3812 18.3125 11.6062 18.1563 11.7937C18 11.975 17.7938 12.1187 17.5563 12.2C17.2313 12.3125 16.9125 12.4437 16.6063 12.5937C16.1563 12.8125 15.625 12.7687 15.2125 12.4812C14.975 12.3125 14.7 12.2312 14.425 12.2312C14.0688 12.2312 13.7125 12.3687 13.45 12.6375L12.6438 13.4437C12.1688 13.9187 12.1063 14.6625 12.4875 15.2125C12.775 15.625 12.8188 16.1562 12.6 16.6062C12.45 16.9125 12.3188 17.2312 12.2063 17.5562C12.0438 18.0312 11.6375 18.375 11.1438 18.4625C10.8125 18.5187 10.5312 18.6937 10.325 18.9375C10.125 19.1812 10 19.4875 10 19.825V20.9625C10 21.6312 10.4812 22.2062 11.1375 22.325C11.3813 22.3687 11.6063 22.475 11.7938 22.6312C11.9813 22.7875 12.1188 22.9937 12.2 23.2312C12.3125 23.5562 12.4438 23.875 12.5938 24.1812C12.8125 24.6312 12.7688 25.1625 12.4813 25.575C12.3125 25.8125 12.2313 26.0937 12.2313 26.3687C12.2313 26.725 12.3688 27.075 12.6375 27.3437L13.4438 28.15C13.9188 28.625 14.6625 28.6875 15.2125 28.3062C15.625 28.0187 16.1563 27.975 16.6063 28.1937C16.9125 28.3437 17.2313 28.475 17.5563 28.5875C18.0313 28.75 18.375 29.1562 18.4625 29.65C18.5188 29.9812 18.6938 30.2625 18.9375 30.4687C19.1813 30.6687 19.4875 30.7937 19.825 30.7937H20.9625C21.6313 30.7937 22.2063 30.3125 22.325 29.6562C22.3688 29.4125 22.475 29.1875 22.6313 29C22.7875 28.8187 22.9938 28.675 23.2313 28.5937C23.5563 28.4812 23.875 28.35 24.1813 28.2C24.6313 27.9812 25.1688 28.025 25.575 28.3125C26.125 28.6937 26.8688 28.6312 27.3438 28.1562L28.15 27.35C28.625 26.875 28.6875 26.1312 28.3063 25.5812C28.1438 25.3437 28.0563 25.0687 28.0563 24.7875C28.0563 24.5812 28.1 24.375 28.1938 24.1812C28.3438 23.875 28.475 23.5562 28.5875 23.2312C28.75 22.7562 29.1563 22.4125 29.65 22.325C29.9813 22.2687 30.2625 22.0937 30.4688 21.85C30.6688 21.6062 30.7938 21.3 30.7938 20.9625V19.825C30.8 19.1562 30.3188 18.5812 29.6625 18.4625ZM20.4063 25.5937C18.9688 25.5937 17.6688 25.0125 16.7313 24.0687C15.7875 23.1312 15.2063 21.8312 15.2063 20.3937C15.2063 18.9562 15.7875 17.6562 16.7313 16.7187C17.675 15.775 18.975 15.1937 20.4063 15.1937C23.275 15.1937 25.6063 17.5187 25.6063 20.3937C25.6063 23.2687 23.275 25.5937 20.4063 25.5937Z" fill="url(#paint6_radial_2006_2748)"/>
<path d="M29.6625 18.4625C29.4188 18.4187 29.1938 18.3125 29.0063 18.1562C28.825 18 28.6813 17.7937 28.6 17.5562C28.4875 17.2312 28.3563 16.9125 28.2063 16.6062C27.9875 16.1562 28.0313 15.6187 28.3188 15.2125C28.7 14.6625 28.6375 13.9187 28.1625 13.4437L27.35 12.6437C26.875 12.1687 26.1313 12.1062 25.5813 12.4875C25.3438 12.65 25.0688 12.7375 24.7875 12.7375C24.5813 12.7375 24.375 12.6937 24.1813 12.6C23.875 12.45 23.5563 12.3187 23.2313 12.2062C22.7563 12.0437 22.4125 11.6375 22.325 11.1437C22.2688 10.8125 22.0938 10.5312 21.85 10.325C21.6063 10.1188 21.3 10 20.9625 10H19.825C19.1563 10 18.5813 10.4813 18.4625 11.1375C18.4188 11.3812 18.3125 11.6062 18.1563 11.7937C18 11.975 17.7938 12.1187 17.5563 12.2C17.2313 12.3125 16.9125 12.4437 16.6063 12.5937C16.1563 12.8125 15.625 12.7687 15.2125 12.4812C14.975 12.3125 14.7 12.2312 14.425 12.2312C14.0688 12.2312 13.7125 12.3687 13.45 12.6375L12.6438 13.4437C12.1688 13.9187 12.1063 14.6625 12.4875 15.2125C12.775 15.625 12.8188 16.1562 12.6 16.6062C12.45 16.9125 12.3188 17.2312 12.2063 17.5562C12.0438 18.0312 11.6375 18.375 11.1438 18.4625C10.8125 18.5187 10.5312 18.6937 10.325 18.9375C10.125 19.1812 10 19.4875 10 19.825V20.9625C10 21.6312 10.4812 22.2062 11.1375 22.325C11.3813 22.3687 11.6063 22.475 11.7938 22.6312C11.9813 22.7875 12.1188 22.9937 12.2 23.2312C12.3125 23.5562 12.4438 23.875 12.5938 24.1812C12.8125 24.6312 12.7688 25.1625 12.4813 25.575C12.3125 25.8125 12.2313 26.0937 12.2313 26.3687C12.2313 26.725 12.3688 27.075 12.6375 27.3437L13.4438 28.15C13.9188 28.625 14.6625 28.6875 15.2125 28.3062C15.625 28.0187 16.1563 27.975 16.6063 28.1937C16.9125 28.3437 17.2313 28.475 17.5563 28.5875C18.0313 28.75 18.375 29.1562 18.4625 29.65C18.5188 29.9812 18.6938 30.2625 18.9375 30.4687C19.1813 30.6687 19.4875 30.7937 19.825 30.7937H20.9625C21.6313 30.7937 22.2063 30.3125 22.325 29.6562C22.3688 29.4125 22.475 29.1875 22.6313 29C22.7875 28.8187 22.9938 28.675 23.2313 28.5937C23.5563 28.4812 23.875 28.35 24.1813 28.2C24.6313 27.9812 25.1688 28.025 25.575 28.3125C26.125 28.6937 26.8688 28.6312 27.3438 28.1562L28.15 27.35C28.625 26.875 28.6875 26.1312 28.3063 25.5812C28.1438 25.3437 28.0563 25.0687 28.0563 24.7875C28.0563 24.5812 28.1 24.375 28.1938 24.1812C28.3438 23.875 28.475 23.5562 28.5875 23.2312C28.75 22.7562 29.1563 22.4125 29.65 22.325C29.9813 22.2687 30.2625 22.0937 30.4688 21.85C30.6688 21.6062 30.7938 21.3 30.7938 20.9625V19.825C30.8 19.1562 30.3188 18.5812 29.6625 18.4625ZM20.4063 25.5937C18.9688 25.5937 17.6688 25.0125 16.7313 24.0687C15.7875 23.1312 15.2063 21.8312 15.2063 20.3937C15.2063 18.9562 15.7875 17.6562 16.7313 16.7187C17.675 15.775 18.975 15.1937 20.4063 15.1937C23.275 15.1937 25.6063 17.5187 25.6063 20.3937C25.6063 23.2687 23.275 25.5937 20.4063 25.5937Z" fill="url(#paint7_radial_2006_2748)"/>
<defs>
<linearGradient id="paint0_linear_2006_2748" x1="5.95187" y1="5.95187" x2="34.0223" y2="34.0223" gradientUnits="userSpaceOnUse">
<stop stop-color="#7B7DA1"/>
<stop offset="0.3104" stop-color="#6D6F93"/>
<stop offset="0.8987" stop-color="#494C6D"/>
<stop offset="1" stop-color="#424566"/>
</linearGradient>
<radialGradient id="paint1_radial_2006_2748" cx="0" cy="0" r="1" gradientUnits="userSpaceOnUse" gradientTransform="translate(17.891 19.8564) rotate(90) scale(22.6279 18.4418)">
<stop offset="0.7889" stop-color="#424566" stop-opacity="0"/>
<stop offset="0.9077" stop-color="#36395F" stop-opacity="0.563"/>
<stop offset="1" stop-color="#292D57"/>
</radialGradient>
<radialGradient id="paint2_radial_2006_2748" cx="0" cy="0" r="1" gradientUnits="userSpaceOnUse" gradientTransform="translate(18.7394 18.1759) rotate(180) scale(22.6279 18.4418)">
<stop offset="0.7889" stop-color="#424566" stop-opacity="0"/>
<stop offset="0.9077" stop-color="#36395F" stop-opacity="0.563"/>
<stop offset="1" stop-color="#292D57"/>
</radialGradient>
<radialGradient id="paint3_radial_2006_2748" cx="0" cy="0" r="1" gradientUnits="userSpaceOnUse" gradientTransform="translate(20.3032 22.1319) scale(23.1778 18.8899)">
<stop offset="0.6871" stop-color="#7B7DA1" stop-opacity="0"/>
<stop offset="0.7564" stop-color="#7F81A5" stop-opacity="0.249"/>
<stop offset="0.8272" stop-color="#8A8DB1" stop-opacity="0.504"/>
<stop offset="0.8984" stop-color="#9DA0C6" stop-opacity="0.76"/>
<stop offset="0.9653" stop-color="#B6B9E0"/>
</radialGradient>
<radialGradient id="paint4_radial_2006_2748" cx="0" cy="0" r="1" gradientUnits="userSpaceOnUse" gradientTransform="translate(22.1023 20.3032) rotate(90) scale(23.1778 18.8899)">
<stop offset="0.6871" stop-color="#7B7DA1" stop-opacity="0"/>
<stop offset="0.7564" stop-color="#7F81A5" stop-opacity="0.249"/>
<stop offset="0.8272" stop-color="#8A8DB1" stop-opacity="0.504"/>
<stop offset="0.8984" stop-color="#9DA0C6" stop-opacity="0.76"/>
<stop offset="0.9653" stop-color="#B6B9E0"/>
</radialGradient>
<linearGradient id="paint5_linear_2006_2748" x1="12.9876" y1="12.9756" x2="27.4468" y2="27.4347" gradientUnits="userSpaceOnUse">
<stop stop-color="#E9EDFF"/>
<stop offset="1" stop-color="#C4CBFF"/>
</linearGradient>
<radialGradient id="paint6_radial_2006_2748" cx="0" cy="0" r="1" gradientUnits="userSpaceOnUse" gradientTransform="translate(19.6473 19.7772) rotate(45) scale(11.8398 10.835)">
<stop offset="0.8102" stop-color="#A1B3FF" stop-opacity="0"/>
<stop offset="1" stop-color="#A1B3FF"/>
</radialGradient>
<radialGradient id="paint7_radial_2006_2748" cx="0" cy="0" r="1" gradientUnits="userSpaceOnUse" gradientTransform="translate(21.0759 21.0291) rotate(45) scale(11.6136 10.8251)">
<stop offset="0.8765" stop-color="white" stop-opacity="0"/>
<stop offset="1" stop-color="white"/>
</radialGradient>
</defs>
</svg>
