<svg width="18" height="22" viewBox="0 0 18 22" fill="none" xmlns="http://www.w3.org/2000/svg">
<path d="M17.927 12.152C17.3817 17.4656 13.9539 21.319 10.2162 21.319C10.017 21.3196 9.81792 21.3088 9.61982 21.2864C9.41156 21.2656 9.20462 21.232 9.00004 21.1857C5.80904 20.4851 3.13404 16.9076 2.79491 12.152C2.41339 6.81522 5.05039 1.84733 8.99858 0.748351C9.50184 0.607666 10.0203 0.537318 10.5407 0.539095C15.0561 0.539095 18.2573 5.62014 17.9796 11.3615V11.3739C17.9796 11.6328 17.9533 11.8932 17.927 12.152Z" fill="url(#paint0_linear_38_77213)"/>
<path d="M7.78532 21.3202C7.78532 21.3202 10.2703 21.6829 11.6473 21.1373L12.3328 0.902996C12.3328 0.902996 11.4909 0.168275 7.16992 0.544935L7.78532 21.3202Z" fill="url(#paint1_linear_38_77213)"/>
<path d="M15.2023 12.152C14.8632 16.9076 12.1853 20.4851 8.99427 21.1857C8.59434 21.2748 8.18675 21.3195 7.77809 21.319C5.25657 21.319 2.92946 19.6139 1.49256 16.9308L1.41947 16.7975C1.36977 16.7014 1.342 16.6425 1.342 16.6425C0.652377 15.2433 0.21982 13.7179 0.0673532 12.1474C-0.54512 6.10221 2.72482 0.5391 7.45504 0.5391C7.97598 0.537188 8.49492 0.607537 8.99865 0.748356C12.9483 1.84734 15.5882 6.81523 15.2023 12.152Z" fill="url(#paint2_linear_38_77213)"/>
<path d="M11.9499 12.1513C11.8403 15.5211 9.86252 18.0864 7.48864 18.2476C7.40678 18.2553 7.32346 18.2584 7.23868 18.2584C4.7537 18.2584 2.52746 15.6342 2.25703 12.1513C1.96468 8.3676 4.05352 5.04896 6.95071 5.04896C7.04833 5.04798 7.14592 5.05263 7.24306 5.06291C9.99846 5.28146 12.0742 8.4978 11.9499 12.1513Z" fill="url(#paint3_linear_38_77213)"/>
<path d="M11.9498 12.1513C11.8402 15.5211 9.86246 18.0864 7.48858 18.2476C5.10885 18.0926 3.03608 15.5211 2.7949 12.1513C2.53324 8.4978 4.49345 5.28146 7.24154 5.06445C9.9984 5.28146 12.0741 8.4978 11.9498 12.1513Z" fill="url(#paint4_linear_38_77213)"/>
<g style="mix-blend-mode:multiply" opacity="0.5">
<path d="M2.61816 8.88393C2.61816 8.88393 2.92221 9.38304 3.10054 9.13349C3.27888 8.88393 4.11354 6.1884 6.88209 5.86599C9.65065 5.54358 11.5334 9.13969 11.5334 9.13969C11.5334 9.13969 10.0556 4.87551 6.84701 5.05222C3.63847 5.22892 2.61816 8.88393 2.61816 8.88393Z" fill="#D42F55"/>
</g>
<g style="mix-blend-mode:soft-light">
<path d="M0.619775 7.66181C0.584693 9.0894 2.01575 8.80729 2.21016 8.73599C2.40457 8.66469 3.4468 6.05286 5.68474 4.94768C7.97677 3.81615 10.0495 5.87771 10.7819 6.91624C11.5142 7.95477 13.5446 6.16602 13.7054 5.31969C13.8662 4.47337 10.1972 -0.209315 5.91424 1.01832C1.73071 2.2165 0.619775 7.66181 0.619775 7.66181Z" fill="white"/>
</g>
<g style="mix-blend-mode:multiply" opacity="0.2">
<path d="M0.561445 8.46887C-0.0451816 8.49832 0.0790673 11.5535 0.301253 12.7067C0.519054 13.8289 1.70892 13.3686 1.92818 12.981C2.14744 12.5935 2.25561 9.35705 2.29216 9.10594C2.3287 8.85483 1.91649 8.93543 1.33763 8.88273C0.758781 8.83003 0.70762 8.46112 0.561445 8.46887Z" fill="#DA0553"/>
</g>
<g style="mix-blend-mode:multiply" opacity="0.2">
<path d="M11.5801 7.49854C11.1796 7.69695 11.8418 10.0375 12.2291 11.5132C12.6033 12.9407 14.0782 11.0574 14.6615 11.1489C15.2447 11.2403 14.5533 6.49876 14.1513 6.088C13.7493 5.67724 12.9322 7.13273 11.5801 7.49854Z" fill="#DA0553"/>
</g>
<g style="mix-blend-mode:soft-light">
<path d="M4.94674 20.2977C3.65602 18.5477 6.60144 19.1244 8.46956 18.2486C10.3786 17.3542 11.1665 15.9607 11.6679 15.4957C12.1693 15.0307 13.6602 16.5807 13.5009 17.2752C13.3416 17.9696 10.3231 22.877 4.94674 20.2977Z" fill="#FF973B"/>
</g>
<g style="mix-blend-mode:multiply" opacity="0.3">
<path d="M10.7454 1.01968C10.4531 1.01968 13.3591 3.63771 14.0914 4.98315C14.8033 6.29138 15.2009 7.86003 15.4917 8.17159C15.7826 8.48315 17.6157 8.03363 17.6157 8.03363C17.6157 8.03363 17.2385 5.10405 15.4976 3.07349C13.6792 0.962332 10.7454 1.01968 10.7454 1.01968Z" fill="#B30053"/>
</g>
<g style="mix-blend-mode:multiply" opacity="0.3">
<path d="M11.6824 20.0527C11.3082 20.4448 12.9849 20.372 13.1764 20.2976C13.3678 20.2232 15.6453 18.9025 16.3133 17.275C17.0091 15.5777 15.2082 15.5265 14.8691 15.5234C14.5299 15.5203 13.992 17.1696 12.8518 18.6111C11.757 20.0031 11.6824 20.0527 11.6824 20.0527Z" fill="#B30053"/>
</g>
<g style="mix-blend-mode:soft-light">
<path d="M15.2827 8.4689C14.9904 8.4782 15.3514 10.7506 15.3821 12.53C15.4113 14.2351 17.7004 13.615 17.7384 13.4135C17.7765 13.212 17.9489 11.0683 17.8846 10.0685C17.8203 9.06876 18.0673 8.25344 17.3145 8.24414C16.6332 8.26979 15.9543 8.34488 15.2827 8.4689Z" fill="white"/>
</g>
<path d="M4.21588 16.8587C3.86506 15.7163 4.36205 17.0137 5.95828 17.8027C7.51797 18.5777 9.46648 17.8027 10.288 16.7595C10.288 16.7595 9.23553 18.1856 7.41419 18.2584C6.81704 18.2869 6.22124 18.1764 5.66869 17.9346C5.11614 17.6927 4.62025 17.3255 4.21588 16.8587Z" fill="#FFE016"/>
<g style="mix-blend-mode:soft-light">
<path d="M6.85565 0.823192C5.29742 0.964247 5.26965 4.64715 6.5019 4.6766C7.73416 4.70605 8.98688 4.80526 10.6664 6.76296C12.2787 8.64162 13.625 5.42837 13.5665 4.79131C13.5081 4.15424 11.1561 0.184574 6.85565 0.823192Z" fill="white"/>
</g>
<g style="mix-blend-mode:soft-light">
<path d="M2.89298 18.9371C1.20758 16.9221 3.29642 16.5563 3.6677 16.6632C4.03899 16.7702 4.99497 18.1342 6.95957 18.3404C8.92416 18.5465 7.67582 21.0963 6.9391 21.1568C6.20238 21.2172 4.02583 20.2888 2.89298 18.9371Z" fill="white"/>
</g>
<path d="M9.47521 1.01953C8.74433 1.05828 9.76756 3.67476 10.6636 4.59858C11.5597 5.52241 12.9673 4.20952 12.9176 3.74606C12.8679 3.2826 10.9106 1.50935 9.47521 1.01953Z" fill="white"/>
<path d="M3.59904 18.8644C3.2833 18.1483 4.91461 19.2178 4.73043 19.5929C4.54625 19.968 3.90893 19.5681 3.59904 18.8644Z" fill="white"/>
<g style="mix-blend-mode:soft-light">
<path d="M12.4981 12.5279C12.1166 12.7821 12.1195 14.2949 10.5978 16.713C9.1551 18.9993 10.7177 19.8518 11.0524 19.8751C11.3872 19.8983 13.5959 17.6911 14.4598 15.0699C15.3807 12.2799 14.6644 11.804 14.4203 11.6846C14.1762 11.5653 12.8139 12.3171 12.4981 12.5279Z" fill="white"/>
</g>
<g style="mix-blend-mode:soft-light">
<path d="M10.5334 1.02009C9.47514 1.02009 12.0566 2.36553 12.957 2.84294C13.8575 3.32036 14.8705 2.46938 14.8705 2.46938C14.8705 2.46938 13.6996 0.677531 10.5334 1.02009Z" fill="white"/>
</g>
<g style="mix-blend-mode:soft-light">
<path d="M2.23804 11.8524C2.16203 11.2154 2.53039 9.93348 2.62248 9.76607C2.71457 9.59867 3.09024 12.815 2.97476 13.4133C2.85928 14.0116 2.28335 12.2291 2.23804 11.8524Z" fill="white"/>
</g>
<path d="M12.9248 3.62109C12.9248 3.62109 16.0968 7.81706 14.7812 14.5443C14.7812 14.5443 16.9227 7.99222 12.9248 3.62109Z" fill="#FFE016"/>
<g style="mix-blend-mode:multiply" opacity="0.5">
<path d="M6.94189 21.2571C7.71261 21.41 8.49861 21.4574 9.2807 21.3982C10.472 21.2882 12.3869 19.1816 12.3869 19.1816C12.3869 19.1816 10.5071 21.6369 6.94189 21.2571Z" fill="#D42F55"/>
</g>
<g style="mix-blend-mode:multiply" opacity="0.8">
<path d="M7.78382 21.3179C5.2623 21.3179 2.93519 19.6128 1.49829 16.9297C2.06107 17.9233 3.78739 20.532 7.78382 21.3179Z" fill="#D42F55"/>
</g>
<g style="mix-blend-mode:multiply" opacity="0.5">
<path d="M1.42822 16.7969C1.45161 16.8418 1.47792 16.8852 1.50131 16.9302L1.42822 16.7969Z" fill="#D42F55"/>
</g>
<g style="mix-blend-mode:multiply" opacity="0.5">
<path d="M17.927 12.1512C17.3818 17.4647 13.954 21.3181 10.2163 21.3181C10.0171 21.3188 9.81797 21.3079 9.61987 21.2856C12.8226 20.9322 14.8325 19.0024 15.9332 17.6941C17.2371 16.1441 17.9402 11.6614 17.9796 11.373C17.9796 11.6319 17.9533 11.8923 17.927 12.1512Z" fill="#D42F55"/>
</g>
<g style="mix-blend-mode:multiply" opacity="0.8">
<path d="M0.329102 7.69866C0.329102 7.69866 0.950346 4.89773 2.92371 3.00668C4.97016 1.03967 8.71224 0.539006 8.71224 0.539006L10.4313 0.472354C10.4313 0.472354 7.80011 0.425853 7.06923 0.539006C6.33836 0.65216 1.88148 1.05827 0.329102 7.69866Z" fill="#D42F55"/>
</g>
<path d="M5.20237 15.3633C5.1504 15.0088 5.16832 14.6467 5.25499 14.3C5.40943 14.2079 5.5767 14.1425 5.75052 14.1062C5.98997 14.1237 6.2253 14.1812 6.44778 14.2767C6.50302 14.4389 6.54269 14.6067 6.56618 14.7774C6.78953 14.9706 7.05396 15.103 7.33652 15.1633C7.19035 14.1791 7.08803 13.4273 7.02663 12.9173C6.76067 12.8786 6.49814 12.8169 6.24167 12.7329C6.00659 12.6465 5.78417 12.5254 5.58096 12.3733C5.34666 12.2004 5.15756 11.9673 5.03134 11.6959C4.87404 11.3554 4.77505 10.988 4.73899 10.6109C4.62016 9.75568 4.75663 8.88252 5.12928 8.11373C5.51372 7.33871 6.02679 6.85974 6.6685 6.70474L6.57788 5.33605C6.61296 5.2415 7.1962 5.2787 7.1962 5.2787L7.414 6.67374C7.74819 6.71598 8.07196 6.82429 8.36852 6.99305C8.3693 6.73998 8.43499 6.49189 8.55855 6.27538C8.71222 6.13609 8.90051 6.04675 9.10086 6.01807C9.46483 5.95142 9.59493 6.10952 9.75134 6.28468C9.92204 6.7176 10.0209 7.17854 10.0437 7.64717C10.0797 8.01879 10.0665 8.39394 10.0042 8.76165C9.98392 8.8603 9.94065 8.95198 9.87835 9.02834C9.81604 9.10469 9.7367 9.16328 9.64755 9.19876C9.53069 9.26288 9.40396 9.30435 9.27334 9.32121C9.03648 9.36107 8.7941 9.3058 8.59363 9.16621C8.53108 9.0023 8.49215 8.82934 8.47815 8.65315C8.22633 8.54524 7.95583 8.49505 7.68442 8.50589C7.815 9.39252 7.91879 10.2709 7.99577 11.141C8.80997 11.203 9.42244 11.3874 9.82004 11.6943C10.2176 12.0012 10.4413 12.5515 10.4837 13.3234C10.5536 14.1599 10.3469 14.9962 9.89897 15.6888C9.71388 15.9857 9.46728 16.2339 9.17798 16.4144C8.88868 16.595 8.56433 16.703 8.22965 16.7304V17.9534C7.98476 18.0436 7.72964 18.0989 7.471 18.1177L7.58356 16.7335C7.24007 16.6693 6.91906 16.5088 6.65389 16.2685C6.68128 16.4188 6.66549 16.5743 6.60857 16.7149C6.44918 16.805 6.26745 16.8408 6.08819 16.8172C5.8877 16.8313 5.68994 16.7618 5.53711 16.6235C5.3529 16.229 5.2394 15.8017 5.20237 15.3633ZM6.04872 10.2032C6.10865 10.7876 6.37469 11.1084 6.85415 11.172C6.81029 10.6295 6.76352 9.81258 6.71674 8.70895C6.19051 8.9461 5.97125 9.44677 6.04872 10.2032ZM8.20042 15.061C8.4272 14.9334 8.61827 14.7447 8.75442 14.5139C8.89512 14.291 8.96197 14.025 8.94445 13.7574C8.91668 13.3033 8.63456 13.0413 8.12148 12.9716C8.15852 13.6753 8.18483 14.3718 8.20042 15.061Z" fill="url(#paint5_linear_38_77213)"/>
<path d="M9.97077 13.3576C9.92692 12.5826 9.69888 12.0385 9.30129 11.7316C9.21972 11.669 9.13315 11.614 9.04256 11.5673C8.54923 11.3285 8.01613 11.1957 7.4741 11.1767C7.47612 11.1639 7.47612 11.1508 7.4741 11.138L7.44486 10.8404C7.36593 10.0808 7.26799 9.31357 7.15251 8.54475C7.42434 8.5348 7.69515 8.58495 7.94771 8.692C7.96068 8.86523 7.99762 9.03549 8.05734 9.19731C8.25742 9.3379 8.50016 9.39325 8.73705 9.35232C8.86777 9.33692 8.99465 9.29592 9.11126 9.23142C9.20056 9.19472 9.27967 9.1347 9.34125 9.05694C9.40284 8.97917 9.4449 8.88616 9.46354 8.78655C9.52316 8.42 9.5335 8.04634 9.49424 7.67672C9.44746 6.8924 9.39338 6.40258 9.33052 6.21038C9.17558 6.03832 8.91246 5.98252 8.55141 6.04607C8.34813 6.07652 8.15763 6.16917 8.00325 6.31268C7.88269 6.53081 7.81912 6.77907 7.81907 7.0319C7.52171 6.86068 7.19624 6.75125 6.86016 6.70949L6.63652 5.31445C6.32224 5.43691 6.14829 5.54231 6.11613 5.63376L6.1249 6.74669C5.48466 6.9017 4.97597 7.37446 4.59299 8.15568C4.22661 8.92606 4.09581 9.79837 4.21878 10.6513C4.21878 10.6668 4.21878 10.6823 4.21878 10.6978C4.25973 11.0566 4.35863 11.4053 4.51113 11.7285C4.63794 12.0001 4.82815 12.2327 5.06367 12.4044C5.26801 12.5548 5.49145 12.6738 5.72731 12.7578C5.98389 12.8414 6.24639 12.9031 6.51227 12.9422C6.54296 13.1778 6.58243 13.4708 6.63213 13.8164C6.68573 14.206 6.75297 14.6623 6.83385 15.1851C6.5511 15.1294 6.28587 15 6.06205 14.8085C6.03718 14.637 5.99554 14.4686 5.9378 14.3063C5.71589 14.2125 5.48171 14.1556 5.24347 14.1373C5.06985 14.1726 4.90292 14.2381 4.7494 14.3311C4.66378 14.6781 4.64784 15.0404 4.70262 15.3944C4.7435 15.8356 4.86252 16.2648 5.05344 16.6592C5.20589 16.7984 5.40379 16.8685 5.60452 16.8545C5.78309 16.8763 5.96372 16.8412 6.12344 16.7538C6.17879 16.6122 6.19453 16.4567 6.16876 16.3058C6.43426 16.5465 6.75584 16.7071 7.09989 16.7708L7.30892 18.0822C7.46017 18.0889 7.61069 18.0565 7.74745 17.9876L7.73283 16.7646C8.06645 16.7376 8.38981 16.6299 8.67814 16.4499C8.96647 16.2699 9.21213 16.0223 9.3963 15.7261C9.84284 15.032 10.0461 14.194 9.97077 13.3576ZM6.08397 11.1333C5.75362 11.0103 5.56262 10.7081 5.51097 10.2265C5.43203 9.47787 5.64545 8.97411 6.17168 8.7354C6.22138 9.78013 6.26962 10.5629 6.31785 11.1023V11.1364C6.31983 11.1555 6.31983 11.1747 6.31785 11.1938C6.23786 11.1838 6.15932 11.1635 6.08397 11.1333ZM8.2459 14.5434C8.11136 14.7737 7.92106 14.9616 7.69482 15.0875C7.67874 14.5744 7.65536 14.0598 7.63051 13.5374C7.62027 13.3592 7.61297 13.1794 7.60127 12.998C7.79227 13.0155 7.97566 13.0855 8.13335 13.2011C8.22112 13.2681 8.29314 13.3557 8.34384 13.4571C8.39454 13.5584 8.42255 13.6708 8.4257 13.7854C8.44712 14.0523 8.38384 14.3191 8.2459 14.5434Z" fill="url(#paint6_linear_38_77213)"/>
<g style="mix-blend-mode:soft-light">
<path d="M9.45328 8.79006C9.43464 8.88967 9.39258 8.98267 9.331 9.06044C9.26941 9.13821 9.1903 9.19822 9.101 9.23492C8.9844 9.29943 8.85751 9.34042 8.72679 9.35582C8.4899 9.39676 8.24716 9.3414 8.04708 9.20082C7.98736 9.03899 7.95043 8.86873 7.93745 8.6955C7.68489 8.58845 7.41408 8.5383 7.14226 8.54825C7.26212 9.32327 7.36006 10.0859 7.43461 10.8439C7.06783 10.9668 6.69174 11.056 6.31052 11.1105C6.26521 10.5711 6.21697 9.78828 6.16435 8.74355C5.63812 8.98226 5.42324 9.48603 5.50363 10.2347C5.55528 10.7152 5.74628 11.0175 6.07664 11.1415C5.34576 11.2066 4.6719 11.0919 4.20706 10.6997C4.20706 10.6842 4.20706 10.6687 4.20706 10.6532C4.08409 9.80033 4.2149 8.92801 4.58127 8.15764C4.96425 7.38262 5.47294 6.9052 6.11318 6.74865L6.10441 5.63572C6.13657 5.54426 6.31052 5.43886 6.6248 5.31641L6.84844 6.71145C7.18452 6.7532 7.50999 6.86263 7.80735 7.03386C7.8074 6.78102 7.87097 6.53277 7.99153 6.31463C8.14591 6.17112 8.33641 6.07847 8.53969 6.04803C8.9022 5.98293 9.16532 6.03873 9.3188 6.21233C9.38312 6.40454 9.43574 6.89435 9.48252 7.67867C9.5224 8.04874 9.51256 8.42293 9.45328 8.79006Z" fill="white"/>
</g>
<g style="mix-blend-mode:multiply" opacity="0.2">
<path d="M8.71655 12.5635C8.54916 12.8034 8.35255 13.0186 8.13185 13.2037C7.97458 13.0884 7.79172 13.0184 7.60123 13.0006C7.61146 13.1805 7.61877 13.3603 7.63047 13.5401C7.31884 13.7075 6.97679 13.8016 6.62771 13.816C6.57801 13.4703 6.53854 13.1774 6.50784 12.9417C6.24196 12.9026 5.97947 12.8409 5.72288 12.7573C5.48703 12.6733 5.26359 12.5544 5.05925 12.4039C4.82372 12.2323 4.63351 11.9996 4.50671 11.7281C4.3542 11.4048 4.25531 11.0561 4.21436 10.6973C4.21436 10.6818 4.21436 10.6663 4.21436 10.6508C4.21436 10.6353 4.29037 11.0894 6.09124 11.139C6.16872 11.139 6.24619 11.139 6.32366 11.139C6.71541 11.139 7.11447 11.139 7.47698 11.139C7.479 11.1519 7.479 11.165 7.47698 11.1778C8.01901 11.1968 8.55212 11.3295 9.04544 11.5684C9.12584 11.7808 9.03813 12.0985 8.71655 12.5635Z" fill="#DA0553"/>
</g>
<path d="M6.05763 14.8081C6.03425 14.6794 6.82944 15.1847 6.82944 15.1847C6.82944 15.1847 6.13949 15.177 6.05763 14.8081Z" fill="white"/>
<path d="M8.38023 6.0902C8.08788 6.12586 8.7135 7.64025 9.07456 7.93941C9.43561 8.23857 9.46484 6.50407 9.31867 6.21421C9.17249 5.92435 8.38023 6.0902 8.38023 6.0902Z" fill="white"/>
<g style="mix-blend-mode:soft-light">
<path d="M6.41583 5.39851C6.10447 5.62791 6.73156 6.18748 6.73156 6.18748C6.73156 6.18748 6.69794 5.37991 6.57808 5.3365C6.56387 5.32774 6.54803 5.32238 6.53165 5.3208C6.51528 5.31923 6.49878 5.32147 6.48332 5.32738C6.46785 5.33329 6.4538 5.34272 6.44214 5.35501C6.43048 5.3673 6.4215 5.38214 6.41583 5.39851Z" fill="white"/>
</g>
<path d="M14.9727 7.4531C14.7286 6.36807 14.7666 8.40793 14.9874 9.50536C15.2022 10.5749 15.3426 10.2804 15.3426 10.2804C15.3426 10.2804 15.3689 8.19867 14.9727 7.4531Z" fill="white"/>
<g style="mix-blend-mode:soft-light">
<path d="M9.50158 21.3907C8.30148 21.3783 10.5687 20.7707 11.0642 20.4514C11.5597 20.1321 12.8958 20.5242 12.8958 20.5242C12.8958 20.5242 11.7103 21.4822 9.50158 21.3907Z" fill="white"/>
</g>
<path d="M14.7815 14.5434C14.1968 14.4612 13.5857 16.5584 13.9044 16.9893C14.2231 17.4202 14.9949 16.188 15.1469 15.7834C15.2989 15.3788 14.7815 14.5434 14.7815 14.5434Z" fill="#ED4800"/>
<path d="M12.381 19.1818C11.9542 19.1105 12.9555 18.2843 13.1441 18.2517C13.3326 18.2192 13.2625 18.6516 13.1075 18.9694C12.9526 19.2872 12.5418 19.2081 12.381 19.1818Z" fill="#ED4800"/>
<path d="M12.3942 18.8516C12.2787 19.0918 12.5068 19.2375 12.8503 19.1507C12.9371 19.115 13.0169 19.0624 13.0856 18.9957C13.0856 18.9957 12.7465 19.3662 12.4103 19.391C12.0741 19.4158 12.1662 19.0887 12.3942 18.8516Z" fill="#FFBA00"/>
<path d="M13.8692 16.0932C13.8692 16.0932 13.8809 16.352 14.2566 16.352C14.7346 16.352 15.1336 15.8281 15.1336 15.8281C15.1336 15.8281 14.682 16.9876 14.1265 17.2232C13.571 17.4588 13.7859 16.4419 13.8692 16.0932Z" fill="#FFBA00"/>
<g style="mix-blend-mode:multiply" opacity="0.5">
<path d="M14.0592 15.4085C13.84 16.4068 14.7068 15.6596 14.8705 15.5217C15.0342 15.3837 15.1833 15.6038 15.1833 15.6038C15.1833 15.6038 15.0372 14.6165 14.7828 14.5343C14.5285 14.4521 14.0592 15.4085 14.0592 15.4085Z" fill="#D42F55"/>
</g>
<g style="mix-blend-mode:multiply" opacity="0.5">
<path d="M12.694 18.5511C12.5742 18.903 12.8914 19.0162 13.0931 18.8953C13.2948 18.7744 13.2203 18.2163 13.1442 18.2473C13.0682 18.2783 12.694 18.5511 12.694 18.5511Z" fill="#D42F55"/>
</g>
<path d="M14.2785 17.1237C14.0402 17.1671 14.3881 16.8974 14.5986 16.6881C14.8091 16.4789 14.4875 17.0229 14.2785 17.1237Z" fill="white"/>
<path d="M12.4411 19.3953C12.4031 19.372 12.7875 19.1705 12.8446 19.2077C12.8182 19.3317 12.4411 19.3953 12.4411 19.3953Z" fill="white"/>
<defs>
<linearGradient id="paint0_linear_38_77213" x1="10.3785" y1="21.319" x2="10.3785" y2="0.539095" gradientUnits="userSpaceOnUse">
<stop stop-color="#FF5900"/>
<stop offset="0.23" stop-color="#FE6800"/>
<stop offset="0.66" stop-color="#FA9300"/>
<stop offset="0.85" stop-color="#F66A00"/>
<stop offset="1" stop-color="#F63F00"/>
</linearGradient>
<linearGradient id="paint1_linear_38_77213" x1="9.75137" y1="21.438" x2="9.75137" y2="0.437983" gradientUnits="userSpaceOnUse">
<stop stop-color="#FF5900"/>
<stop offset="0.23" stop-color="#FE6800"/>
<stop offset="0.66" stop-color="#FA9300"/>
<stop offset="0.85" stop-color="#F66A00"/>
<stop offset="1" stop-color="#F63F00"/>
</linearGradient>
<linearGradient id="paint2_linear_38_77213" x1="10.9179" y1="20.5145" x2="3.61623" y2="1.59888" gradientUnits="userSpaceOnUse">
<stop stop-color="#FFEA34"/>
<stop offset="0.63" stop-color="#FF8100"/>
<stop offset="0.7" stop-color="#FFA400"/>
<stop offset="1" stop-color="#FFBA00"/>
</linearGradient>
<linearGradient id="paint3_linear_38_77213" x1="9.19158" y1="17.7609" x2="4.54191" y2="5.71103" gradientUnits="userSpaceOnUse">
<stop stop-color="#FFBA00"/>
<stop offset="0.21" stop-color="#FE6800"/>
<stop offset="1" stop-color="#D41B00"/>
</linearGradient>
<linearGradient id="paint4_linear_38_77213" x1="7.36287" y1="18.2476" x2="7.36287" y2="5.06445" gradientUnits="userSpaceOnUse">
<stop offset="0.04" stop-color="#EF6300"/>
<stop offset="1" stop-color="#E13E00"/>
</linearGradient>
<linearGradient id="paint5_linear_38_77213" x1="7.99366" y1="18.0886" x2="7.09443" y2="5.25351" gradientUnits="userSpaceOnUse">
<stop stop-color="#C82400"/>
<stop offset="0.51" stop-color="#D84400"/>
<stop offset="1" stop-color="#D42F00"/>
</linearGradient>
<linearGradient id="paint6_linear_38_77213" x1="7.46245" y1="18.0715" x2="6.56897" y2="5.3184" gradientUnits="userSpaceOnUse">
<stop stop-color="#FFAB00"/>
<stop offset="0.49" stop-color="#FFBA00"/>
<stop offset="1" stop-color="#EF6C00"/>
</linearGradient>
</defs>
</svg>
