<svg width="24" height="24" viewBox="0 0 24 24" fill="none" xmlns="http://www.w3.org/2000/svg">
<path d="M5.73706 7.77148H17.2153C17.7071 7.77148 18.106 7.37258 18.106 6.88086C18.106 6.38914 17.7071 5.99023 17.2153 5.99023H5.73706C5.24534 5.99023 4.84644 6.38914 4.84644 6.88086C4.84644 7.37258 5.24534 7.77148 5.73706 7.77148Z" fill="white"/>
<path d="M13.44 12.4316C13.44 11.9399 13.0411 11.541 12.5494 11.541H5.73706C5.24534 11.541 4.84644 11.9399 4.84644 12.4316C4.84644 12.9234 5.24534 13.3223 5.73706 13.3223H12.5494C13.0411 13.3223 13.44 12.9234 13.44 12.4316Z" fill="white"/>
<path d="M22.8108 15.1739C22.9064 14.1272 22.9706 12.9075 22.972 11.4858C22.9692 8.81063 22.7447 6.85172 22.5052 5.41219C22.0861 3.04031 19.9317 0.885937 17.5598 0.466875C16.1203 0.227344 14.1614 0.0028125 11.4858 0C8.81063 0.0028125 6.85125 0.227344 5.41172 0.466875C3.04031 0.885937 0.885937 3.04031 0.466875 5.41219C0.227344 6.85172 0.00328125 8.81063 0 11.4858C0.00328125 14.1609 0.227344 16.1203 0.466875 17.5598C0.885937 19.9317 3.04031 22.0861 5.41219 22.5052C6.85172 22.7447 8.81063 22.9688 11.4862 22.972C12.9075 22.9706 14.1272 22.9064 15.1734 22.8108C16.1034 23.5547 17.2828 24 18.5662 24C21.5672 24 24.0005 21.5672 24.0005 18.5662C24.0005 17.2828 23.5552 16.1034 22.8113 15.1739H22.8108ZM11.4862 21.1908C9.37594 21.1884 7.48781 21.0441 5.71453 20.7497C4.92656 20.6086 4.12828 20.1666 3.46688 19.5052C2.80547 18.8438 2.36391 18.0459 2.22234 17.2575C1.92797 15.4861 1.78406 13.598 1.78125 11.4858C1.78359 9.37453 1.92797 7.48641 2.22234 5.71406C2.36344 4.92609 2.80547 4.12828 3.46688 3.46688C4.12828 2.80547 4.92609 2.36391 5.71453 2.22234C7.48688 1.92797 9.375 1.78406 11.4862 1.78125C13.5966 1.78359 15.4847 1.92797 17.258 2.22234C18.0459 2.36344 18.8438 2.80547 19.5056 3.46688C20.167 4.12828 20.6086 4.92609 20.7502 5.71453C21.0445 7.48781 21.1884 9.37547 21.1912 11.4862C21.1903 12.2784 21.1688 13.0383 21.1275 13.7733C20.3644 13.3645 19.4925 13.133 18.5662 13.133C15.5653 13.133 13.132 15.5658 13.132 18.5667C13.132 19.493 13.3641 20.3644 13.7723 21.1275C13.0373 21.1688 12.2775 21.1903 11.4858 21.1908H11.4862ZM18.5662 22.2188C16.552 22.2188 14.9133 20.5805 14.9133 18.5662C14.9133 16.552 16.552 14.9137 18.5662 14.9137C20.5805 14.9137 22.2192 16.552 22.2192 18.5662C22.2192 20.5805 20.5805 22.2188 18.5662 22.2188Z" fill="white"/>
<path d="M19.0442 19.6049C18.9308 19.5862 18.7766 19.5684 18.5661 19.5684C18.3556 19.5684 18.2014 19.5862 18.088 19.6049C17.9014 19.6377 17.7317 19.8074 17.6984 19.9945C17.6797 20.1079 17.6619 20.2621 17.6619 20.4726C17.6619 20.683 17.6797 20.8373 17.6984 20.9507C17.7312 21.1373 17.9009 21.307 18.088 21.3402C18.2014 21.359 18.3556 21.3768 18.5661 21.3768C18.7766 21.3768 18.9308 21.359 19.0442 21.3402C19.2308 21.3074 19.4005 21.1377 19.4337 20.9507C19.4525 20.8373 19.4703 20.683 19.4703 20.4726C19.4703 20.2621 19.4525 20.1079 19.4337 19.9945C19.4009 19.8079 19.2312 19.6382 19.0442 19.6049Z" fill="white"/>
<path d="M18.5658 19.0133C19.0575 19.0133 19.4564 18.6144 19.4564 18.1227V16.6367C19.4564 16.145 19.0575 15.7461 18.5658 15.7461C18.0741 15.7461 17.6752 16.145 17.6752 16.6367V18.1227C17.6752 18.6144 18.0741 19.0133 18.5658 19.0133Z" fill="white"/>
</svg>
