<svg width="39" height="39" viewBox="0 0 39 39" fill="none" xmlns="http://www.w3.org/2000/svg">
<path d="M20.6235 0.314342L25.792 3.4367C25.98 3.55016 26.1843 3.63484 26.3975 3.68734L32.2598 5.1344C33.0468 5.32869 33.6614 5.94313 33.8557 6.73036L35.3026 12.5926C35.3554 12.806 35.4398 13.0101 35.5536 13.1981L38.6756 18.3664C39.0949 19.0604 39.0949 19.9298 38.6756 20.6235L35.5536 25.792C35.44 25.98 35.3554 26.1843 35.3026 26.3975L33.8557 32.2598C33.6614 33.047 33.0468 33.6614 32.2598 33.8557L26.3975 35.3028C26.1841 35.3553 25.98 35.4398 25.792 35.5534L20.6235 38.6755C19.9296 39.0948 19.0605 39.0948 18.3664 38.6755L13.198 35.5534C13.0101 35.4398 12.8057 35.3553 12.5926 35.3028L6.73021 33.8557C5.94313 33.6614 5.32854 33.047 5.13425 32.2598L3.68735 26.3975C3.63484 26.1841 3.55016 25.98 3.43641 25.792L0.314342 20.6235C-0.104781 19.9298 -0.104781 19.0604 0.314342 18.3664L3.43641 13.1981C3.55001 13.0101 3.6347 12.8059 3.68735 12.5926L5.13425 6.73036C5.32854 5.94313 5.94313 5.32869 6.73021 5.1344L12.5926 3.68734C12.8057 3.63484 13.0101 3.55016 13.198 3.4367L18.3664 0.314342C19.0604 -0.104781 19.9295 -0.104781 20.6235 0.314342Z" fill="url(#paint0_linear_1015_18123)"/>
<path opacity="0.3" d="M38.6755 18.3664L35.5535 13.198C35.4399 13.0101 35.3553 12.806 35.3025 12.5926L33.8556 6.73021C33.6613 5.94313 33.0468 5.32854 32.2597 5.13425L26.3973 3.68734C26.184 3.63455 25.98 3.55016 25.7919 3.4367L20.6235 0.314342C19.9297 -0.104781 19.0604 -0.104781 18.3663 0.314342L13.1981 3.4367C13.01 3.55016 12.8056 3.63469 12.5925 3.68734L6.73027 5.13425C5.94305 5.32854 5.3286 5.94313 5.13417 6.73021L5.11133 6.8232L10.9678 5.37792C11.181 5.32513 11.3853 5.24074 11.5732 5.12698L16.7416 2.00492C17.4356 1.5858 18.3046 1.5858 18.9987 2.00492L24.1672 5.12698C24.3551 5.24059 24.5595 5.32513 24.7726 5.37792L30.6349 6.82468C31.422 7.01897 32.0366 7.63342 32.2309 8.42064L33.6778 14.2829C33.7303 14.4963 33.815 14.7005 33.9288 14.8884L37.0508 20.0569C37.4699 20.7508 37.4699 21.6199 37.0508 22.314L33.9288 27.4824C33.8151 27.6705 33.7305 27.8744 33.6778 28.0878L32.2537 33.8572L32.2597 33.8557C33.0468 33.6614 33.6613 33.047 33.8556 32.2598L35.3025 26.3975C35.3553 26.1841 35.4397 25.98 35.5535 25.792L38.6755 20.6235C39.095 19.9296 39.095 19.0604 38.6755 18.3664Z" fill="#FFD85C"/>
<g opacity="0.2">
<path d="M4.41383 11.5076C4.52744 11.3197 4.61197 11.1153 4.66447 10.902L6.00074 5.48828C5.58147 5.78638 5.26157 6.21381 5.13402 6.73008L3.68711 12.5925C3.65463 12.7243 3.58834 12.8435 3.53198 12.9668L4.41383 11.5076Z" fill="url(#paint1_linear_1015_18123)"/>
<path d="M33.2368 32.1664L27.3746 33.6133C27.1613 33.6658 26.9571 33.7504 26.769 33.8643L21.6008 36.9862C20.9068 37.4054 20.0374 37.4054 19.3435 36.9862L14.1752 33.8643C13.9871 33.7504 13.7829 33.666 13.5696 33.6133L7.70742 32.1664C6.92034 31.9721 6.30575 31.3575 6.11146 30.5705L4.66441 24.7081C4.61191 24.4947 4.52737 24.2906 4.41376 24.1027L1.2917 18.9342C0.920632 18.3201 0.897495 17.5753 1.18314 16.9297L0.314342 18.3674C-0.104781 19.0613 -0.104781 19.9304 0.314342 20.6245L3.43641 25.793C3.55001 25.981 3.63469 26.1852 3.68734 26.3985L5.13425 32.2607C5.32869 33.048 5.94313 33.6624 6.73036 33.8567L12.5926 35.3037C12.8057 35.3563 13.0101 35.4408 13.1981 35.5544L18.3664 38.6765C19.0604 39.0957 19.9298 39.0957 20.6235 38.6765L25.792 35.5544C25.98 35.4408 26.1843 35.3563 26.3974 35.3037L32.2598 33.8567C33.0468 33.6624 33.6614 33.048 33.8557 32.2607L33.9664 31.8121C33.7463 31.9684 33.5076 32.0995 33.2368 32.1664Z" fill="url(#paint2_linear_1015_18123)"/>
<path d="M36.5305 24.1017C36.4872 24.1733 36.4695 24.2568 36.4348 24.3327L38.6753 20.6237C38.7237 20.5437 38.7468 20.4552 38.784 20.3711L36.5305 24.1017Z" fill="url(#paint3_linear_1015_18123)"/>
</g>
<path d="M20.1522 4.15125L24.3716 6.7001C24.5252 6.7928 24.6918 6.86191 24.8659 6.90492L29.6517 8.08605C30.2945 8.2446 30.7962 8.74648 30.9547 9.3891L32.1359 14.1749C32.1789 14.349 32.248 14.5157 32.3407 14.6692L34.8897 18.8886C35.2317 19.4552 35.2317 20.1648 34.8897 20.7312L32.3407 24.9506C32.248 25.1043 32.1789 25.2708 32.1359 25.4449L30.9547 30.231C30.7962 30.8735 30.2943 31.3754 29.6517 31.5339L24.8659 32.7152C24.6918 32.7581 24.5251 32.8272 24.3716 32.9199L20.1522 35.4689C19.5856 35.8112 18.876 35.8112 18.3096 35.4689L14.0902 32.9199C13.9365 32.8272 13.77 32.7581 13.5958 32.7152L8.80975 31.5339C8.16713 31.3754 7.6654 30.8735 7.50686 30.231L6.32557 25.4449C6.28271 25.2708 6.2136 25.1041 6.1209 24.9506L3.57191 20.7312C3.22961 20.1648 3.22961 19.4552 3.57191 18.8886L6.1209 14.6692C6.2136 14.5157 6.28271 14.349 6.32557 14.1749L7.50686 9.3891C7.6654 8.74633 8.16728 8.2446 8.80975 8.08605L13.5958 6.90492C13.7701 6.86191 13.9367 6.7928 14.0902 6.7001L18.3096 4.15125C18.876 3.80896 19.5855 3.80896 20.1522 4.15125Z" fill="#FFE173"/>
<path d="M20.4163 3.83485L24.6357 6.3837C24.7892 6.47654 24.956 6.5455 25.13 6.58851L29.9161 7.7698C30.5586 7.92834 31.0604 8.42992 31.219 9.07269L32.4003 13.8585C32.4431 14.0326 32.5122 14.1995 32.6049 14.3528L35.1539 18.5722C35.4962 19.1388 35.4962 19.8484 35.1539 20.415L32.6049 24.6344C32.5122 24.7877 32.4431 24.9546 32.4003 25.1287L31.219 29.9145C31.0604 30.5571 30.5586 31.0588 29.9161 31.2174L25.13 32.3987C24.956 32.4415 24.7892 32.5106 24.6357 32.6035L20.4163 35.1523C19.8499 35.4946 19.1402 35.4946 18.5737 35.1523L14.3543 32.6035C14.2006 32.5106 14.0341 32.4415 13.86 32.3987L9.07416 31.2174C8.43139 31.0588 7.92966 30.557 7.77111 29.9145L6.58998 25.1287C6.54682 24.9546 6.47785 24.7877 6.38516 24.6344L3.83631 20.415C3.49402 19.8484 3.49402 19.1388 3.83631 18.5722L6.38516 14.3528C6.47785 14.1995 6.54697 14.0326 6.58998 13.8585L7.77111 9.07269C7.92966 8.42992 8.43153 7.92834 9.07416 7.7698L13.86 6.58851C14.0341 6.54535 14.2008 6.47654 14.3543 6.3837L18.5737 3.83485C19.1404 3.49255 19.8499 3.49255 20.4163 3.83485Z" fill="url(#paint4_linear_1015_18123)"/>
<g opacity="0.2">
<path d="M6.12082 14.8489C6.15672 14.7899 6.1714 14.7212 6.19972 14.6582L3.83597 18.5712C3.79607 18.6373 3.77679 18.7103 3.74609 18.7797L6.12082 14.8489Z" fill="#8F0600"/>
<path d="M35.1539 18.5722L32.6049 14.3528C32.5122 14.1992 32.4431 14.0326 32.4001 13.8585L31.219 9.07269C31.0604 8.42992 30.5586 7.92819 29.9161 7.76965L25.13 6.58851C24.956 6.54535 24.7892 6.47639 24.6357 6.3837L20.4163 3.83485C19.8499 3.49255 19.1402 3.49255 18.5737 3.83485L14.3543 6.3837C14.2006 6.47639 14.0341 6.5455 13.86 6.58851L9.07415 7.76965C8.48032 7.91618 8.01923 8.36229 7.82568 8.93551C8.06817 8.61323 8.40498 8.36689 8.80987 8.26693L13.596 7.08565C13.7702 7.04264 13.9368 6.97367 14.0903 6.88083L18.3097 4.33198C18.8762 3.98968 19.5857 3.98968 20.1523 4.33198L24.3717 6.88083C24.5253 6.97367 24.6919 7.04264 24.866 7.08565L29.6521 8.26693C30.2946 8.42548 30.7963 8.92721 30.955 9.56983L32.1361 14.3556C32.1791 14.5299 32.2483 14.6966 32.3409 14.8499L34.8898 19.0693C35.1922 19.5697 35.2115 20.1769 34.9797 20.7034L35.1541 20.415C35.4961 19.8484 35.4961 19.1388 35.1539 18.5722Z" fill="#8F0600"/>
<path d="M32.3407 25.1324C32.248 25.2858 32.1789 25.4526 32.1359 25.6266L30.9547 30.4127C30.9427 30.4613 30.9162 30.503 30.9001 30.5499C31.0424 30.3611 31.1603 30.153 31.2189 29.9156L32.4 25.1298C32.4265 25.0228 32.4804 24.926 32.5259 24.8262L32.3407 25.1324Z" fill="#8F0600"/>
</g>
<path d="M20.3269 5.35878L24.1361 7.65995C24.2747 7.74374 24.4253 7.80589 24.5825 7.84474L28.9032 8.91124C29.4834 9.05436 29.9363 9.50729 30.0794 10.0875L31.1458 14.4082C31.1846 14.5655 31.2469 14.7159 31.3307 14.8544L33.6317 18.6636C33.9408 19.1753 33.9408 19.8157 33.6317 20.3272L31.3307 24.1365C31.2469 24.2751 31.1845 24.4254 31.1458 24.5828L30.0794 28.9035C29.9363 29.4837 29.4834 29.9366 28.9032 30.0797L24.5825 31.1462C24.4253 31.1851 24.2747 31.2472 24.1361 31.331L20.3269 33.6322C19.8154 33.9413 19.1748 33.9413 18.6633 33.6322L14.8541 31.331C14.7156 31.2472 14.5649 31.1851 14.4078 31.1462L10.0871 30.0797C9.50696 29.9366 9.05387 29.4837 8.91075 28.9035L7.84441 24.5828C7.80555 24.4254 7.74326 24.2751 7.65947 24.1365L5.35829 20.3271C5.04951 19.8157 5.04951 19.1751 5.35829 18.6635L7.65947 14.8543C7.74326 14.7158 7.80555 14.5654 7.84441 14.408L8.91075 10.0873C9.05387 9.50714 9.5071 9.05421 10.0871 8.91109L14.4078 7.84459C14.5649 7.80574 14.7156 7.7436 14.8541 7.6598L18.6633 5.35863C19.1747 5.0497 19.8154 5.0497 20.3269 5.35878Z" fill="url(#paint5_linear_1015_18123)"/>
<g opacity="0.2">
<path d="M7.39529 15.3325C7.41931 15.2929 7.42777 15.2465 7.44823 15.2051L5.35855 18.6644C5.33186 18.7086 5.32044 18.758 5.29834 18.8038L7.39529 15.3325Z" fill="#8F0600"/>
<path d="M31.0666 24.6134C30.9828 24.7519 30.9204 24.9023 30.8817 25.0596L29.8152 29.3803C29.8034 29.4283 29.7775 29.4693 29.7615 29.5153C29.9055 29.3362 30.0224 29.134 30.0795 28.9031L31.1458 24.5824C31.1737 24.47 31.2269 24.3672 31.2778 24.2637L31.0666 24.6134Z" fill="#8F0600"/>
<path d="M33.6317 18.6638L31.3307 14.8546C31.2469 14.7161 31.1848 14.5657 31.1458 14.4083L30.0794 10.0875C29.9363 9.50727 29.4834 9.05463 28.9032 8.91122L24.5825 7.84487C24.4253 7.80602 24.2747 7.74372 24.1361 7.65993L20.3269 5.35876C19.8154 5.04968 19.1748 5.04968 18.6633 5.35876L14.8541 7.65993C14.7156 7.74372 14.5649 7.80616 14.4079 7.84487L10.0872 8.91122C9.55487 9.04277 9.14168 9.44083 8.9646 9.9525C9.18187 9.68213 9.47404 9.47465 9.82287 9.38848L14.1436 8.32214C14.3009 8.28328 14.4515 8.22114 14.59 8.13719L18.3992 5.83602C18.9105 5.52694 19.5512 5.52694 20.0627 5.83602L23.8719 8.13719C24.0104 8.22114 24.1611 8.28328 24.3183 8.32214L28.6389 9.38848C29.2191 9.5319 29.6722 9.98483 29.8151 10.5649L30.8816 14.8856C30.9205 15.0429 30.9828 15.1933 31.0666 15.3318L33.3677 19.141C33.65 19.6085 33.6614 20.1792 33.4277 20.6652L33.6317 20.3273C33.9407 19.816 33.9407 19.1754 33.6317 18.6638Z" fill="#8F0600"/>
</g>
<path opacity="0.2" d="M19.845 7.49891L23.2621 9.56308C23.3865 9.63827 23.5215 9.69419 23.6625 9.72889L27.5385 10.6856C28.059 10.8139 28.4654 11.2203 28.5937 11.7409L29.5504 15.6168C29.5851 15.7577 29.641 15.8928 29.7162 16.0172L31.7804 19.4343C32.0577 19.8931 32.0577 20.4678 31.7804 20.9266L29.7162 24.3438C29.641 24.468 29.5851 24.603 29.5504 24.7442L28.5937 28.6201C28.4654 29.1405 28.059 29.5467 27.5385 29.6753L23.6625 30.6319C23.5216 30.6668 23.3865 30.7227 23.2621 30.7977L19.845 32.8621C19.3862 33.1391 18.8116 33.1391 18.3528 32.8621L14.9356 30.7977C14.8113 30.7227 14.6763 30.6668 14.5351 30.6319L10.6592 29.6753C10.1388 29.5469 9.73256 29.1405 9.60398 28.6201L8.64738 24.7442C8.61238 24.603 8.55662 24.468 8.48158 24.3438L6.41725 20.9266C6.14021 20.4678 6.14021 19.8931 6.41725 19.4343L8.48158 16.0172C8.55662 15.8928 8.61253 15.7578 8.64738 15.6168L9.60398 11.7409C9.73256 11.2203 10.1388 10.8139 10.6592 10.6856L14.5351 9.72889C14.6763 9.69419 14.8113 9.63827 14.9356 9.56308L18.3528 7.49891C18.8115 7.22172 19.3862 7.22172 19.845 7.49891Z" fill="#0A0000"/>
<path d="M20.2411 6.81347L23.6583 8.87764C23.7826 8.95284 23.9176 9.00875 24.0588 9.04346L27.9347 10.0002C28.4551 10.1285 28.8613 10.5349 28.9899 11.0554L29.9465 14.9313C29.9813 15.0722 30.0373 15.2073 30.1123 15.3318L32.1766 18.749C32.4537 19.2077 32.4537 19.7824 32.1766 20.2411L30.1123 23.6583C30.0373 23.7827 29.9813 23.9176 29.9465 24.0588L28.9899 27.9347C28.8613 28.4549 28.4551 28.8613 27.9347 28.9899L24.0588 29.9465C23.9176 29.9813 23.7826 30.0373 23.6583 30.1123L20.2411 32.1766C19.7822 32.4538 19.2077 32.4538 18.7488 32.1766L15.3318 30.1123C15.2073 30.0373 15.0724 29.9813 14.9313 29.9465L11.0554 28.9899C10.5349 28.8615 10.1285 28.4551 10.0001 27.9347L9.04346 24.0588C9.00875 23.9176 8.95284 23.7827 8.87764 23.6583L6.81347 20.2411C6.53613 19.7824 6.53613 19.2077 6.81347 18.749L8.87764 15.3318C8.95284 15.2073 9.00875 15.0724 9.04346 14.9313L10.0001 11.0554C10.1285 10.5349 10.5349 10.1285 11.0554 10.0002L14.9313 9.04346C15.0722 9.00875 15.2073 8.95284 15.3318 8.87764L18.7488 6.81347C19.2075 6.53613 19.7821 6.53613 20.2411 6.81347Z" fill="url(#paint6_linear_1015_18123)"/>
<path opacity="0.3" d="M32.1765 18.749L30.1122 15.3319C30.0372 15.2075 29.9811 15.0725 29.9464 14.9315L28.9898 11.0556C28.8612 10.535 28.455 10.1286 27.9346 10.0003L24.0587 9.04375C23.9175 9.00875 23.7826 8.95299 23.6582 8.87764L20.241 6.81347C19.7821 6.53613 19.2076 6.53613 18.7489 6.81347L15.3317 8.87764C15.2072 8.95284 15.0723 9.00875 14.9312 9.04375L11.0552 10.0003C10.6788 10.0932 10.3657 10.3346 10.1707 10.6566C10.3451 10.4979 10.5537 10.3759 10.791 10.3173L14.667 9.36054C14.8081 9.32569 14.9431 9.26977 15.0675 9.19473L18.4846 7.13041C18.9435 6.85337 19.518 6.85337 19.9769 7.13041L23.3939 9.19473C23.5184 9.26977 23.6533 9.32569 23.7944 9.36054L27.6704 10.3173C28.1908 10.4456 28.5971 10.8519 28.7257 11.3722L29.6822 15.2483C29.717 15.3892 29.7729 15.5243 29.8481 15.6484L31.9124 19.0656C32.1894 19.5245 32.1894 20.099 31.9124 20.5579L29.8481 23.9751C29.7729 24.0994 29.717 24.2343 29.6822 24.3752L28.7257 28.2513C28.6901 28.3952 28.6293 28.5273 28.5548 28.6503C28.7627 28.4612 28.9199 28.2174 28.9898 27.9344L29.9464 24.0583C29.9811 23.9174 30.0372 23.7823 30.1122 23.6582L32.1765 20.241C32.4536 19.7827 32.4536 19.208 32.1765 18.749Z" fill="#FFE68B"/>
<path d="M20.1698 8.02403L23.2607 9.8911C23.3731 9.95902 23.4952 10.0096 23.6229 10.0412L27.1286 10.9064C27.5993 11.0227 27.9668 11.3902 28.083 11.8609L28.9484 15.3667C28.9798 15.4942 29.0302 15.6163 29.0983 15.7289L30.9654 18.8196C31.216 19.2346 31.216 19.7544 30.9654 20.1695L29.0983 23.2603C29.0304 23.3729 28.9798 23.4948 28.9484 23.6225L28.083 27.1282C27.9668 27.599 27.5993 27.9665 27.1286 28.0826L23.6229 28.948C23.4953 28.9794 23.3731 29.03 23.2607 29.0981L20.1698 30.9651C19.7549 31.2158 19.2351 31.2158 18.82 30.9651L15.7292 29.0981C15.6167 29.0301 15.4948 28.9794 15.3671 28.948L11.8613 28.0826C11.3906 27.9665 11.0231 27.599 10.9068 27.1282L10.0416 23.6225C10.01 23.4949 9.95955 23.3729 9.89147 23.2603L8.02441 20.1695C7.77377 19.7544 7.77377 19.2347 8.02441 18.8196L9.89147 15.7289C9.9594 15.6163 10.01 15.4944 10.0416 15.3667L10.9068 11.8609C11.0231 11.3902 11.3906 11.0227 11.8613 10.9064L15.3671 10.0412C15.4946 10.0096 15.6167 9.95917 15.7292 9.8911L18.82 8.02403C19.2351 7.77324 19.7548 7.77324 20.1698 8.02403Z" fill="url(#paint7_linear_1015_18123)"/>
<path opacity="0.2" d="M35.5534 25.792L38.6755 20.6235C39.0947 19.9296 39.0947 19.0604 38.6755 18.3664L35.5534 13.198C35.4398 13.0101 35.3553 12.806 35.3025 12.5926L33.8555 6.73021C33.6613 5.94313 33.0467 5.32854 32.2596 5.13425L26.3972 3.68734C26.1839 3.63455 25.9799 3.55016 25.7918 3.4367L20.6234 0.314342C19.9296 -0.104781 19.0603 -0.104781 18.3663 0.314342L13.198 3.4367C13.0099 3.55016 12.8055 3.63469 12.5924 3.68734L6.73018 5.13425C5.94296 5.32854 5.32851 5.94313 5.13408 6.73021L4.9917 7.30787C23.2922 12.2561 30.0728 24.4916 32.629 33.7086C33.2315 33.4357 33.6937 32.9156 33.8557 32.2598L35.3026 26.3975C35.3552 26.1841 35.4398 25.98 35.5534 25.792Z" fill="#FFEE73"/>
<path d="M16.6785 15.3118L15.8723 16.5193L14.4597 15.2767L15.1678 14.2129C15.4035 14.3694 15.7102 14.3694 15.9459 14.2129L16.6785 15.3118Z" fill="#66261B"/>
<path d="M24.3652 15.2767L22.9527 16.5193L22.1465 15.3118L22.8791 14.2129C23.1148 14.3694 23.4215 14.3694 23.6572 14.2129L24.3652 15.2767Z" fill="#66261B"/>
<path d="M13.8041 19.7617H25.0206C25.4077 19.7617 25.7216 20.0756 25.7216 20.4627C25.7216 20.8499 25.4077 21.1638 25.0206 21.1638H13.8041C13.4169 21.1638 13.103 20.8499 13.103 20.4627C13.103 20.0756 13.4169 19.7617 13.8041 19.7617Z" fill="#66261B"/>
<path d="M19.0502 22.2168H19.7513C19.9449 22.2168 20.1018 22.3737 20.1018 22.5673V27.6498C20.1018 27.8434 19.9449 28.0003 19.7513 28.0003H19.0502C18.8566 28.0003 18.6997 27.8434 18.6997 27.6498V22.5673C18.6997 22.3737 18.8567 22.2168 19.0502 22.2168Z" fill="#66261B"/>
<path d="M17.5077 22.6569L16.1631 27.7393C16.1225 27.893 15.9833 28.0003 15.8244 28.0003H14.9619C14.8028 28.0003 14.6638 27.8932 14.6231 27.7393L13.2786 22.6569C13.2291 22.4697 13.3406 22.278 13.5278 22.2284C13.557 22.2207 13.5872 22.2168 13.6173 22.2168H14.3275C14.4929 22.2168 14.6359 22.3326 14.6703 22.4946L15.3932 25.8972L16.1158 22.4946C16.1502 22.3326 16.2932 22.2168 16.4586 22.2168H17.1688C17.3624 22.2168 17.5193 22.3737 17.5193 22.5673C17.5194 22.5976 17.5154 22.6278 17.5077 22.6569Z" fill="#66261B"/>
<path d="M21.1533 22.5673V27.6498C21.1533 27.8434 21.3102 28.0003 21.5038 28.0003H22.2049C22.3985 28.0003 22.5554 27.8434 22.5554 27.6498V26.423H23.455C24.6164 26.423 25.5581 25.4813 25.5581 24.3199C25.5581 23.1585 24.6164 22.2168 23.455 22.2168H21.5038C21.3104 22.2168 21.1533 22.3737 21.1533 22.5673ZM23.4317 25.0209H22.5554V23.6189H23.4317C23.8188 23.6189 24.1327 23.9327 24.1327 24.3199C24.1327 24.707 23.819 25.0209 23.4317 25.0209Z" fill="#66261B"/>
<path d="M11.5258 13.4539C11.8161 13.4539 12.0515 13.2185 12.0515 12.9281C12.0515 12.6377 11.8161 12.4023 11.5258 12.4023C11.2354 12.4023 11 12.6377 11 12.9281C11 13.2185 11.2354 13.4539 11.5258 13.4539Z" fill="#66261B"/>
<path d="M27.299 13.4539C27.5893 13.4539 27.8247 13.2185 27.8247 12.9281C27.8247 12.6377 27.5893 12.4023 27.299 12.4023C27.0086 12.4023 26.7732 12.6377 26.7732 12.9281C26.7732 13.2185 27.0086 13.4539 27.299 13.4539Z" fill="#66261B"/>
<path d="M19.4125 12.0515C19.7029 12.0515 19.9383 11.8161 19.9383 11.5258C19.9383 11.2354 19.7029 11 19.4125 11C19.1221 11 18.8867 11.2354 18.8867 11.5258C18.8867 11.8161 19.1221 12.0515 19.4125 12.0515Z" fill="#66261B"/>
<path d="M15.5566 13.9803C15.7502 13.9803 15.9071 13.8234 15.9071 13.6298C15.9071 13.4362 15.7502 13.2793 15.5566 13.2793C15.363 13.2793 15.2061 13.4362 15.2061 13.6298C15.2061 13.8234 15.363 13.9803 15.5566 13.9803Z" fill="#66261B"/>
<path d="M23.268 13.9803C23.4616 13.9803 23.6185 13.8234 23.6185 13.6298C23.6185 13.4362 23.4616 13.2793 23.268 13.2793C23.0744 13.2793 22.9175 13.4362 22.9175 13.6298C22.9175 13.8234 23.0744 13.9803 23.268 13.9803Z" fill="#66261B"/>
<path d="M26.8608 13.6874L24.8944 19.5883H13.9303L11.9639 13.6874C11.9954 13.6702 12.0252 13.6502 12.0532 13.6278L15.7915 16.9156C15.8637 16.9794 15.9739 16.9724 16.0377 16.9002C16.0432 16.8941 16.0482 16.8874 16.0526 16.8806L19.0811 12.3379C19.2935 12.4243 19.5311 12.4243 19.7436 12.3379L22.772 16.8806C22.8249 16.961 22.9331 16.9834 23.0135 16.9305C23.0204 16.926 23.027 16.9211 23.0331 16.9156L26.7714 13.6278C26.7994 13.6502 26.8292 13.6702 26.8608 13.6874Z" fill="#66261B"/>
<defs>
<linearGradient id="paint0_linear_1015_18123" x1="5.54507" y1="36.218" x2="33.0376" y2="3.26021" gradientUnits="userSpaceOnUse">
<stop stop-color="#FFC64F"/>
<stop offset="0.2772" stop-color="#E06919"/>
<stop offset="0.7073" stop-color="#FFC640"/>
<stop offset="1" stop-color="#FFA02B"/>
</linearGradient>
<linearGradient id="paint1_linear_1015_18123" x1="16.3981" y1="39.3665" x2="10.4552" y2="23.9676" gradientUnits="userSpaceOnUse">
<stop offset="0.3653" stop-color="#BA0909"/>
<stop offset="1" stop-color="#ED0B0B"/>
</linearGradient>
<linearGradient id="paint2_linear_1015_18123" x1="21.4452" y1="37.4192" x2="15.5023" y2="22.0207" gradientUnits="userSpaceOnUse">
<stop offset="0.3653" stop-color="#BA0909"/>
<stop offset="1" stop-color="#ED0B0B"/>
</linearGradient>
<linearGradient id="paint3_linear_1015_18123" x1="40.5749" y1="30.0354" x2="34.632" y2="14.6367" gradientUnits="userSpaceOnUse">
<stop offset="0.3653" stop-color="#BA0909"/>
<stop offset="1" stop-color="#ED0B0B"/>
</linearGradient>
<linearGradient id="paint4_linear_1015_18123" x1="35.7797" y1="6.2296" x2="0.844617" y2="34.6849" gradientUnits="userSpaceOnUse">
<stop stop-color="#FFC64F"/>
<stop offset="0.2772" stop-color="#E06919"/>
<stop offset="0.7073" stop-color="#FFC640"/>
<stop offset="1" stop-color="#FFA02B"/>
</linearGradient>
<linearGradient id="paint5_linear_1015_18123" x1="7.00468" y1="33.3381" x2="31.7268" y2="5.93941" gradientUnits="userSpaceOnUse">
<stop offset="0.3653" stop-color="#BA0909"/>
<stop offset="1" stop-color="#ED0B0B"/>
</linearGradient>
<linearGradient id="paint6_linear_1015_18123" x1="7.84556" y1="33.8611" x2="29.8913" y2="6.67362" gradientUnits="userSpaceOnUse">
<stop stop-color="#FFC64F"/>
<stop offset="0.2772" stop-color="#E06919"/>
<stop offset="0.7073" stop-color="#FFC640"/>
<stop offset="1" stop-color="#FFA02B"/>
</linearGradient>
<linearGradient id="paint7_linear_1015_18123" x1="31.5395" y1="30.1392" x2="2.4505" y2="4.43093" gradientUnits="userSpaceOnUse">
<stop stop-color="#FFC64F"/>
<stop offset="0.2772" stop-color="#E06919"/>
<stop offset="0.7073" stop-color="#FFC640"/>
<stop offset="1" stop-color="#FFA02B"/>
</linearGradient>
</defs>
</svg>
